<svg width="4621" height="2532" viewBox="0 0 4621 2532" fill="none" xmlns="http://www.w3.org/2000/svg">
<path d="M0.00407616 699.534C0.00511687 369.861 0.00563723 205.024 102.518 102.512C205.031 0 370.023 0 700.006 0H4075.74C4257.87 0 4348.93 0 4419.49 33.0625C4493.61 67.7879 4553.21 127.39 4587.94 201.505C4621 272.072 4621 363.134 4621 545.257V545.257C4621 649.527 4621 701.662 4606.54 750.388C4591.66 800.553 4563.65 849.823 4528.15 888.269C4493.67 925.61 4450.98 951.016 4365.6 1001.83C3396.37 1578.65 -0.00524561 3489.26 6.07628e-09 1937.61C0.00188245 1380.78 0.00318075 983.182 0.00407616 699.534Z" fill="#D6DFEA"/>
</svg>
