<svg width="1760" height="3018" viewBox="0 0 1760 3018" fill="none" xmlns="http://www.w3.org/2000/svg">
<path d="M1739.52 3002.63C1753.95 2989.45 1761.12 2970.27 1758.83 2950.91V1927.98L53.9941 1927.98L53.9941 2394.71C52.2599 2411.36 51.4668 2422.01 48.0807 2436.86C39.4805 2474.59 29.0166 2518.19 21.1714 2546.18C13.4635 2573.67 7.60257 2594.96 3.87267 2622.89C1.06413 2643.92 -0.211523 2665.03 0.0284988 2686.18C0.040452 2687.68 0.0691399 2689.17 0.0896995 2690.66C0.0414083 2693.66 0.014633 2696.65 0.0284988 2699.61C0.0552741 2705.42 0.469336 2713.34 1.11912 2722.31C1.75981 2734.55 2.67591 2746.79 3.87267 2759.06C4.70223 2767.56 6.01422 2777.61 7.58058 2788.36C8.82085 2798.87 10.162 2809.19 11.561 2818.51C14.7439 2839.73 18.7038 2861.29 23.0304 2878.27C26.7837 2895.04 31.5402 2911.79 38.4702 2929.75C49.1502 2957.42 63.1035 2981.69 88.4445 2998.79C91.6541 3000.96 95.0082 3002.97 98.4742 3004.82C110.181 3011.34 120.883 3013.88 134.343 3016.05C135.542 3016.25 142.111 3017.01 142.977 3017.01C156.649 3017.01 161.23 3017.07 177.995 3017.01C194.761 3016.94 1187.03 3017.01 1691.19 3017.01C1707.95 3016.05 1726.5 3014.51 1739.52 3002.63Z" fill="#14192B"/>
<path d="M53.9941 2407.59L53.9941 334.057C53.9941 176.581 53.9941 97.8425 103.169 48.9211C152.344 -0.000244141 231.489 -0.000244141 389.78 -0.000244141H1423.04C1581.33 -0.000244141 1660.48 -0.000244141 1709.65 48.9211C1758.83 97.8425 1758.83 176.581 1758.83 334.056L1758.83 2407.59H53.9941Z" fill="#14192B"/>
</svg>
