<svg width="4380" height="3673" viewBox="0 0 4380 3673" fill="none" xmlns="http://www.w3.org/2000/svg">
<g clip-path="url(#clip0_128_497)">
<path fill-rule="evenodd" clip-rule="evenodd" d="M4365.05 2436.39C4281.73 2652.75 3816.41 2786.69 3703.09 2986.1C3670.42 3046.81 3657.39 3096.57 3657.09 3134C3658.31 3154.02 3666.33 3181.77 3661.99 3210.1C3652.04 3277.94 3594.24 3328.13 3522.14 3370.52C3388.96 3448.8 3189.56 3468.78 3134.5 3478C2863.77 3523.32 2581.59 3664.21 2418 3679.5C2289.01 3693.17 2115.6 3673.49 2016 3679.5C1869.92 3688.45 1737.54 3680.55 1595.24 3678.67C1326.56 3675.12 1067.31 3679.52 798.61 3678.67C581.191 3677.98 363.733 3677.99 144.967 3678.67C103.924 3683.23 62.7232 3668.66 34.6652 3638.47C9.3582 3611.24 -2.2778 3574.47 1.9832 3537.96C1.9832 2483.29 1.9832 1428.62 1.9832 373.952C0.575204 344.419 -1.6688 319.197 1.9832 290.941C1.9832 289.129 6.5 266.313 6.5 264.5C11.319 235.201 20 217.5 30 191C33.481 184.816 45.528 164.781 49.5 159C85.918 105.995 106.052 93.3391 165 71.0001C203.216 56.5181 244.31 41.3471 280 33.5001C316.17 24.4421 365.76 14.7636 411 8.10064C430.866 5.17464 469.107 4.93564 491.5 2.34164C514.397 -0.934361 551.382 1.79446 569.5 0.0594562C595.644 -2.44454 605.701 3.68164 631.785 2.34164C650.884 0.982639 667.749 0.115639 680.137 0.0596389C686.439 0.0316389 692.8 0.0866391 699.195 0.187639C702.375 0.145639 749.817 0.0845492 753 0.0595492C798.06 -0.442451 814.205 2.2256 859 8.1006C918.491 15.9026 948.389 28.1606 1006.96 44.2836C1066.57 60.6926 1159.44 82.5796 1239.82 100.569C1271.46 107.651 1302.39 113.023 1337.87 116.65C1377.16 120.667 1410.84 121.121 1448.17 120.67C1484.11 120.236 1523.2 119.482 1550.4 120.973C1577.25 121.223 1604.16 121.352 1632 120.67C1866.29 114.936 2108.17 122.603 2342.5 119.5C2414.1 118.552 2580.24 126.126 2751.37 201.077C2820.05 231.159 2960.43 330.985 3082.27 438.277C3175.17 520.079 3255.22 603.688 3319.22 707.64C3360.26 774.3 3387.4 835.971 3405.01 896.596C3416.88 937.461 3425.04 979.063 3429.52 1021.23C3428.16 1109.67 3426.8 1198.12 3425.44 1286.57C4001.68 1720.12 4468.83 2166.86 4365.05 2436.39Z" fill="#B4C5D9"/>
<mask id="mask0_128_497" style="mask-type:alpha" maskUnits="userSpaceOnUse" x="0" y="-2" width="4380" height="3686">
<path fill-rule="evenodd" clip-rule="evenodd" d="M4365.05 2435.39C4281.73 2651.75 3816.41 2785.69 3703.09 2985.1C3670.42 3045.81 3657.39 3095.57 3657.09 3133C3658.31 3153.02 3666.33 3180.77 3661.99 3209.1C3652.04 3276.94 3594.24 3327.13 3522.14 3369.52C3388.96 3447.8 3189.56 3467.78 3134.5 3477C2863.77 3522.32 2581.59 3663.21 2418 3678.5C2289.01 3692.17 2115.6 3672.49 2016 3678.5C1869.92 3687.45 1737.54 3679.55 1595.24 3677.67C1326.56 3674.12 1067.31 3678.52 798.61 3677.67C581.191 3676.98 363.733 3676.99 144.967 3677.67C103.924 3682.23 62.7232 3667.66 34.6652 3637.47C9.3582 3610.24 -2.2778 3573.47 1.9832 3536.96C1.9832 2482.29 1.9832 1427.62 1.9832 372.952C0.575206 343.419 -1.6688 318.197 1.9832 289.941C1.9832 288.129 6.5 265.313 6.5 263.5C11.319 234.201 20 216.5 30 190C33.481 183.816 45.528 163.781 49.5 158C85.918 104.995 106.052 92.3391 165 70.0001C203.216 55.5181 244.31 40.3471 280 32.5001C316.17 23.4421 365.76 13.7636 411 7.10064C430.866 4.17464 469.107 3.93564 491.5 1.34164C514.397 -1.93436 551.382 0.794459 569.5 -0.940545C595.644 -3.44454 605.701 2.68164 631.785 1.34164C650.884 -0.0173625 667.749 -0.884362 680.137 -0.940363C686.439 -0.968363 692.8 -0.913362 699.195 -0.812362C702.375 -0.854362 749.817 -0.915452 753 -0.940452C798.06 -1.44245 814.205 1.2256 859 7.1006C918.491 14.9026 948.389 27.1606 1006.96 43.2836C1066.57 59.6926 1159.44 81.5796 1239.82 99.569C1271.46 106.651 1302.39 112.023 1337.87 115.65C1377.16 119.667 1410.84 120.121 1448.17 119.67C1484.11 119.236 1523.2 118.482 1550.4 119.973C1577.25 120.223 1604.16 120.352 1632 119.67C1866.29 113.936 2108.17 121.603 2342.5 118.5C2414.1 117.552 2580.24 125.126 2751.37 200.077C2820.05 230.159 2960.43 329.985 3082.27 437.277C3175.17 519.079 3255.22 602.688 3319.22 706.64C3360.26 773.3 3387.4 834.971 3405.01 895.596C3416.88 936.461 3425.04 978.063 3429.52 1020.23C3428.16 1108.67 3426.8 1197.12 3425.44 1285.57C4001.68 1719.12 4468.83 2165.86 4365.05 2435.39Z" fill="#D6DFEA"/>
</mask>
<g mask="url(#mask0_128_497)">
<path opacity="0.35" d="M40.7616 65.999C40.7616 73.2629 34.8731 79.1514 27.6093 79.1514C20.3455 79.1514 14.457 73.2629 14.457 65.999C14.457 58.7352 20.3455 52.8467 27.6093 52.8467C34.8731 52.8467 40.7616 58.7352 40.7616 65.999Z" fill="#4F279B" fill-opacity="0.05" stroke="black"/>
<path opacity="0.35" d="M250.375 65.999C250.375 73.2629 244.486 79.1514 237.223 79.1514C229.959 79.1514 224.07 73.2629 224.07 65.999C224.07 58.7352 229.959 52.8467 237.223 52.8467C244.486 52.8467 250.375 58.7352 250.375 65.999Z" fill="#4F279B" fill-opacity="0.05" stroke="black"/>
<path opacity="0.35" d="M459.986 65.999C459.986 73.2629 454.098 79.1514 446.834 79.1514C439.57 79.1514 433.682 73.2629 433.682 65.999C433.682 58.7352 439.57 52.8467 446.834 52.8467C454.098 52.8467 459.986 58.7352 459.986 65.999Z" fill="#4F279B" fill-opacity="0.05" stroke="black"/>
<path opacity="0.35" d="M669.598 65.999C669.598 73.2629 663.709 79.1514 656.445 79.1514C649.181 79.1514 643.293 73.2629 643.293 65.999C643.293 58.7352 649.181 52.8467 656.445 52.8467C663.709 52.8467 669.598 58.7352 669.598 65.999Z" fill="#4F279B" fill-opacity="0.05" stroke="black"/>
<path opacity="0.35" d="M879.209 65.999C879.209 73.2629 873.32 79.1514 866.057 79.1514C858.793 79.1514 852.904 73.2629 852.904 65.999C852.904 58.7352 858.793 52.8467 866.057 52.8467C873.32 52.8467 879.209 58.7352 879.209 65.999Z" fill="#4F279B" fill-opacity="0.05" stroke="black"/>
<path opacity="0.35" d="M1088.82 65.999C1088.82 73.2629 1082.93 79.1514 1075.67 79.1514C1068.4 79.1514 1062.52 73.2629 1062.52 65.999C1062.52 58.7352 1068.4 52.8467 1075.67 52.8467C1082.93 52.8467 1088.82 58.7352 1088.82 65.999Z" fill="#4F279B" fill-opacity="0.05" stroke="black"/>
<path opacity="0.35" d="M1298.43 65.999C1298.43 73.2629 1292.54 79.1514 1285.28 79.1514C1278.02 79.1514 1272.13 73.2629 1272.13 65.999C1272.13 58.7352 1278.02 52.8467 1285.28 52.8467C1292.54 52.8467 1298.43 58.7352 1298.43 65.999Z" fill="#4F279B" fill-opacity="0.05" stroke="black"/>
<path opacity="0.35" d="M1508.04 65.999C1508.04 73.2629 1502.15 79.1514 1494.89 79.1514C1487.62 79.1514 1481.74 73.2629 1481.74 65.999C1481.74 58.7352 1487.62 52.8467 1494.89 52.8467C1502.15 52.8467 1508.04 58.7352 1508.04 65.999Z" fill="#4F279B" fill-opacity="0.05" stroke="black"/>
<path opacity="0.35" d="M1717.65 65.999C1717.65 73.2629 1711.76 79.1514 1704.5 79.1514C1697.24 79.1514 1691.35 73.2629 1691.35 65.999C1691.35 58.7352 1697.24 52.8467 1704.5 52.8467C1711.76 52.8467 1717.65 58.7352 1717.65 65.999Z" fill="#4F279B" fill-opacity="0.05" stroke="black"/>
<path opacity="0.35" d="M1927.26 65.999C1927.26 73.2629 1921.38 79.1514 1914.11 79.1514C1906.85 79.1514 1900.96 73.2629 1900.96 65.999C1900.96 58.7352 1906.85 52.8467 1914.11 52.8467C1921.38 52.8467 1927.26 58.7352 1927.26 65.999Z" fill="#4F279B" fill-opacity="0.05" stroke="black"/>
<path opacity="0.35" d="M2136.87 65.999C2136.87 73.2629 2130.99 79.1514 2123.72 79.1514C2116.46 79.1514 2110.57 73.2629 2110.57 65.999C2110.57 58.7352 2116.46 52.8467 2123.72 52.8467C2130.99 52.8467 2136.87 58.7352 2136.87 65.999Z" fill="#4F279B" fill-opacity="0.05" stroke="black"/>
<path opacity="0.35" d="M2346.48 65.999C2346.48 73.2629 2340.6 79.1514 2333.33 79.1514C2326.07 79.1514 2320.18 73.2629 2320.18 65.999C2320.18 58.7352 2326.07 52.8467 2333.33 52.8467C2340.6 52.8467 2346.48 58.7352 2346.48 65.999Z" fill="#4F279B" fill-opacity="0.05" stroke="black"/>
<path opacity="0.35" d="M2556.1 65.999C2556.1 73.2629 2550.21 79.1514 2542.95 79.1514C2535.68 79.1514 2529.79 73.2629 2529.79 65.999C2529.79 58.7352 2535.68 52.8467 2542.95 52.8467C2550.21 52.8467 2556.1 58.7352 2556.1 65.999Z" fill="#4F279B" fill-opacity="0.05" stroke="black"/>
<path opacity="0.35" d="M2765.71 65.999C2765.71 73.2629 2759.82 79.1514 2752.56 79.1514C2745.29 79.1514 2739.4 73.2629 2739.4 65.999C2739.4 58.7352 2745.29 52.8467 2752.56 52.8467C2759.82 52.8467 2765.71 58.7352 2765.71 65.999Z" fill="#4F279B" fill-opacity="0.05" stroke="black"/>
<path opacity="0.35" d="M2975.32 65.999C2975.32 73.2629 2969.43 79.1514 2962.17 79.1514C2954.9 79.1514 2949.02 73.2629 2949.02 65.999C2949.02 58.7352 2954.9 52.8467 2962.17 52.8467C2969.43 52.8467 2975.32 58.7352 2975.32 65.999Z" fill="#4F279B" fill-opacity="0.05" stroke="black"/>
<path opacity="0.35" d="M3184.93 65.999C3184.93 73.2629 3179.04 79.1514 3171.78 79.1514C3164.51 79.1514 3158.62 73.2629 3158.62 65.999C3158.62 58.7352 3164.51 52.8467 3171.78 52.8467C3179.04 52.8467 3184.93 58.7352 3184.93 65.999Z" fill="#4F279B" fill-opacity="0.05" stroke="black"/>
<path opacity="0.35" d="M3394.54 65.999C3394.54 73.2629 3388.65 79.1514 3381.39 79.1514C3374.12 79.1514 3368.23 73.2629 3368.23 65.999C3368.23 58.7352 3374.12 52.8467 3381.39 52.8467C3388.65 52.8467 3394.54 58.7352 3394.54 65.999Z" fill="#4F279B" fill-opacity="0.05" stroke="black"/>
<path opacity="0.35" d="M3604.15 65.999C3604.15 73.2629 3598.26 79.1514 3591 79.1514C3583.74 79.1514 3577.85 73.2629 3577.85 65.999C3577.85 58.7352 3583.74 52.8467 3591 52.8467C3598.26 52.8467 3604.15 58.7352 3604.15 65.999Z" fill="#4F279B" fill-opacity="0.05" stroke="black"/>
<path d="M40.7616 275.611C40.7616 282.875 34.8731 288.763 27.6093 288.763C20.3455 288.763 14.457 282.875 14.457 275.611C14.457 268.347 20.3455 262.458 27.6093 262.458C34.8731 262.458 40.7616 268.347 40.7616 275.611Z" fill="#4F279B" fill-opacity="0.05" stroke="black"/>
<path opacity="0.35" d="M250.375 275.611C250.375 282.875 244.486 288.763 237.223 288.763C229.959 288.763 224.07 282.875 224.07 275.611C224.07 268.347 229.959 262.458 237.223 262.458C244.486 262.458 250.375 268.347 250.375 275.611Z" fill="#4F279B" fill-opacity="0.05" stroke="black"/>
<path d="M459.986 275.611C459.986 282.875 454.098 288.763 446.834 288.763C439.57 288.763 433.682 282.875 433.682 275.611C433.682 268.347 439.57 262.458 446.834 262.458C454.098 262.458 459.986 268.347 459.986 275.611Z" fill="#4F279B" fill-opacity="0.05" stroke="black"/>
<path d="M669.598 275.611C669.598 282.875 663.709 288.763 656.445 288.763C649.181 288.763 643.293 282.875 643.293 275.611C643.293 268.347 649.181 262.458 656.445 262.458C663.709 262.458 669.598 268.347 669.598 275.611Z" fill="#4F279B" fill-opacity="0.05" stroke="black"/>
<path d="M879.209 275.611C879.209 282.875 873.32 288.763 866.057 288.763C858.793 288.763 852.904 282.875 852.904 275.611C852.904 268.347 858.793 262.458 866.057 262.458C873.32 262.458 879.209 268.347 879.209 275.611Z" fill="#4F279B" fill-opacity="0.05" stroke="black"/>
<path opacity="0.35" d="M1088.82 275.611C1088.82 282.875 1082.93 288.763 1075.67 288.763C1068.4 288.763 1062.52 282.875 1062.52 275.611C1062.52 268.347 1068.4 262.458 1075.67 262.458C1082.93 262.458 1088.82 268.347 1088.82 275.611Z" fill="#4F279B" fill-opacity="0.05" stroke="black"/>
<path opacity="0.35" d="M1298.43 275.611C1298.43 282.875 1292.54 288.763 1285.28 288.763C1278.02 288.763 1272.13 282.875 1272.13 275.611C1272.13 268.347 1278.02 262.458 1285.28 262.458C1292.54 262.458 1298.43 268.347 1298.43 275.611Z" fill="#4F279B" fill-opacity="0.05" stroke="black"/>
<path opacity="0.35" d="M1508.04 275.611C1508.04 282.875 1502.15 288.763 1494.89 288.763C1487.62 288.763 1481.74 282.875 1481.74 275.611C1481.74 268.347 1487.62 262.458 1494.89 262.458C1502.15 262.458 1508.04 268.347 1508.04 275.611Z" fill="#4F279B" fill-opacity="0.05" stroke="black"/>
<path opacity="0.35" d="M1717.65 275.611C1717.65 282.875 1711.76 288.763 1704.5 288.763C1697.24 288.763 1691.35 282.875 1691.35 275.611C1691.35 268.347 1697.24 262.458 1704.5 262.458C1711.76 262.458 1717.65 268.347 1717.65 275.611Z" fill="#4F279B" fill-opacity="0.05" stroke="black"/>
<path d="M1927.26 275.611C1927.26 282.875 1921.38 288.763 1914.11 288.763C1906.85 288.763 1900.96 282.875 1900.96 275.611C1900.96 268.347 1906.85 262.458 1914.11 262.458C1921.38 262.458 1927.26 268.347 1927.26 275.611Z" fill="#4F279B" fill-opacity="0.05" stroke="black"/>
<path d="M2136.87 275.611C2136.87 282.875 2130.99 288.763 2123.72 288.763C2116.46 288.763 2110.57 282.875 2110.57 275.611C2110.57 268.347 2116.46 262.458 2123.72 262.458C2130.99 262.458 2136.87 268.347 2136.87 275.611Z" fill="#4F279B" fill-opacity="0.05" stroke="black"/>
<path opacity="0.35" d="M2346.48 275.611C2346.48 282.875 2340.6 288.763 2333.33 288.763C2326.07 288.763 2320.18 282.875 2320.18 275.611C2320.18 268.347 2326.07 262.458 2333.33 262.458C2340.6 262.458 2346.48 268.347 2346.48 275.611Z" fill="#4F279B" fill-opacity="0.05" stroke="black"/>
<path d="M2556.1 275.611C2556.1 282.875 2550.21 288.763 2542.95 288.763C2535.68 288.763 2529.79 282.875 2529.79 275.611C2529.79 268.347 2535.68 262.458 2542.95 262.458C2550.21 262.458 2556.1 268.347 2556.1 275.611Z" fill="#4F279B" fill-opacity="0.05" stroke="black"/>
<path opacity="0.35" d="M2765.71 275.611C2765.71 282.875 2759.82 288.763 2752.56 288.763C2745.29 288.763 2739.4 282.875 2739.4 275.611C2739.4 268.347 2745.29 262.458 2752.56 262.458C2759.82 262.458 2765.71 268.347 2765.71 275.611Z" fill="#4F279B" fill-opacity="0.05" stroke="black"/>
<path opacity="0.35" d="M2975.32 275.611C2975.32 282.875 2969.43 288.763 2962.17 288.763C2954.9 288.763 2949.02 282.875 2949.02 275.611C2949.02 268.347 2954.9 262.458 2962.17 262.458C2969.43 262.458 2975.32 268.347 2975.32 275.611Z" fill="#4F279B" fill-opacity="0.05" stroke="black"/>
<path opacity="0.35" d="M3184.93 275.611C3184.93 282.875 3179.04 288.763 3171.78 288.763C3164.51 288.763 3158.62 282.875 3158.62 275.611C3158.62 268.347 3164.51 262.458 3171.78 262.458C3179.04 262.458 3184.93 268.347 3184.93 275.611Z" fill="#4F279B" fill-opacity="0.05" stroke="black"/>
<path opacity="0.35" d="M3394.54 275.611C3394.54 282.875 3388.65 288.763 3381.39 288.763C3374.12 288.763 3368.23 282.875 3368.23 275.611C3368.23 268.347 3374.12 262.458 3381.39 262.458C3388.65 262.458 3394.54 268.347 3394.54 275.611Z" fill="#4F279B" fill-opacity="0.05" stroke="black"/>
<path opacity="0.35" d="M3604.15 275.611C3604.15 282.875 3598.26 288.763 3591 288.763C3583.74 288.763 3577.85 282.875 3577.85 275.611C3577.85 268.347 3583.74 262.458 3591 262.458C3598.26 262.458 3604.15 268.347 3604.15 275.611Z" fill="#4F279B" fill-opacity="0.05" stroke="black"/>
<path opacity="0.35" d="M40.7616 485.221C40.7616 492.485 34.8731 498.374 27.6093 498.374C20.3455 498.374 14.457 492.485 14.457 485.221C14.457 477.957 20.3455 472.069 27.6093 472.069C34.8731 472.069 40.7616 477.957 40.7616 485.221Z" fill="#4F279B" fill-opacity="0.05" stroke="black"/>
<path opacity="0.35" d="M250.375 485.221C250.375 492.485 244.486 498.374 237.223 498.374C229.959 498.374 224.07 492.485 224.07 485.221C224.07 477.957 229.959 472.069 237.223 472.069C244.486 472.069 250.375 477.957 250.375 485.221Z" fill="#4F279B" fill-opacity="0.05" stroke="black"/>
<path d="M459.986 485.221C459.986 492.485 454.098 498.374 446.834 498.374C439.57 498.374 433.682 492.485 433.682 485.221C433.682 477.957 439.57 472.069 446.834 472.069C454.098 472.069 459.986 477.957 459.986 485.221Z" fill="#4F279B" fill-opacity="0.05" stroke="black"/>
<path d="M669.598 485.221C669.598 492.485 663.709 498.374 656.445 498.374C649.181 498.374 643.293 492.485 643.293 485.221C643.293 477.957 649.181 472.069 656.445 472.069C663.709 472.069 669.598 477.957 669.598 485.221Z" fill="#4F279B" fill-opacity="0.05" stroke="black"/>
<path opacity="0.35" d="M879.209 485.221C879.209 492.485 873.32 498.374 866.057 498.374C858.793 498.374 852.904 492.485 852.904 485.221C852.904 477.957 858.793 472.069 866.057 472.069C873.32 472.069 879.209 477.957 879.209 485.221Z" fill="#4F279B" fill-opacity="0.05" stroke="black"/>
<path opacity="0.35" d="M1088.82 485.221C1088.82 492.485 1082.93 498.374 1075.67 498.374C1068.4 498.374 1062.52 492.485 1062.52 485.221C1062.52 477.957 1068.4 472.069 1075.67 472.069C1082.93 472.069 1088.82 477.957 1088.82 485.221Z" fill="#4F279B" fill-opacity="0.05" stroke="black"/>
<path opacity="0.35" d="M1298.43 485.221C1298.43 492.485 1292.54 498.374 1285.28 498.374C1278.02 498.374 1272.13 492.485 1272.13 485.221C1272.13 477.957 1278.02 472.069 1285.28 472.069C1292.54 472.069 1298.43 477.957 1298.43 485.221Z" fill="#4F279B" fill-opacity="0.05" stroke="black"/>
<path opacity="0.35" d="M1508.04 485.221C1508.04 492.485 1502.15 498.374 1494.89 498.374C1487.62 498.374 1481.74 492.485 1481.74 485.221C1481.74 477.957 1487.62 472.069 1494.89 472.069C1502.15 472.069 1508.04 477.957 1508.04 485.221Z" fill="#4F279B" fill-opacity="0.05" stroke="black"/>
<path opacity="0.35" d="M1717.65 485.221C1717.65 492.485 1711.76 498.374 1704.5 498.374C1697.24 498.374 1691.35 492.485 1691.35 485.221C1691.35 477.957 1697.24 472.069 1704.5 472.069C1711.76 472.069 1717.65 477.957 1717.65 485.221Z" fill="#4F279B" fill-opacity="0.05" stroke="black"/>
<path opacity="0.35" d="M1927.26 485.221C1927.26 492.485 1921.38 498.374 1914.11 498.374C1906.85 498.374 1900.96 492.485 1900.96 485.221C1900.96 477.957 1906.85 472.069 1914.11 472.069C1921.38 472.069 1927.26 477.957 1927.26 485.221Z" fill="#4F279B" fill-opacity="0.05" stroke="black"/>
<path opacity="0.35" d="M2136.87 485.221C2136.87 492.485 2130.99 498.374 2123.72 498.374C2116.46 498.374 2110.57 492.485 2110.57 485.221C2110.57 477.957 2116.46 472.069 2123.72 472.069C2130.99 472.069 2136.87 477.957 2136.87 485.221Z" fill="#4F279B" fill-opacity="0.05" stroke="black"/>
<path opacity="0.35" d="M2346.48 485.221C2346.48 492.485 2340.6 498.374 2333.33 498.374C2326.07 498.374 2320.18 492.485 2320.18 485.221C2320.18 477.957 2326.07 472.069 2333.33 472.069C2340.6 472.069 2346.48 477.957 2346.48 485.221Z" fill="#4F279B" fill-opacity="0.05" stroke="black"/>
<path opacity="0.35" d="M2556.1 485.221C2556.1 492.485 2550.21 498.374 2542.95 498.374C2535.68 498.374 2529.79 492.485 2529.79 485.221C2529.79 477.957 2535.68 472.069 2542.95 472.069C2550.21 472.069 2556.1 477.957 2556.1 485.221Z" fill="#4F279B" fill-opacity="0.05" stroke="black"/>
<path d="M2765.71 485.221C2765.71 492.485 2759.82 498.374 2752.56 498.374C2745.29 498.374 2739.4 492.485 2739.4 485.221C2739.4 477.957 2745.29 472.069 2752.56 472.069C2759.82 472.069 2765.71 477.957 2765.71 485.221Z" fill="#4F279B" fill-opacity="0.05" stroke="black"/>
<path d="M2975.32 485.221C2975.32 492.485 2969.43 498.374 2962.17 498.374C2954.9 498.374 2949.02 492.485 2949.02 485.221C2949.02 477.957 2954.9 472.069 2962.17 472.069C2969.43 472.069 2975.32 477.957 2975.32 485.221Z" fill="#4F279B" fill-opacity="0.05" stroke="black"/>
<path opacity="0.35" d="M3184.93 485.221C3184.93 492.485 3179.04 498.374 3171.78 498.374C3164.51 498.374 3158.62 492.485 3158.62 485.221C3158.62 477.957 3164.51 472.069 3171.78 472.069C3179.04 472.069 3184.93 477.957 3184.93 485.221Z" fill="#4F279B" fill-opacity="0.05" stroke="black"/>
<path opacity="0.35" d="M3394.54 485.221C3394.54 492.485 3388.65 498.374 3381.39 498.374C3374.12 498.374 3368.23 492.485 3368.23 485.221C3368.23 477.957 3374.12 472.069 3381.39 472.069C3388.65 472.069 3394.54 477.957 3394.54 485.221Z" fill="#4F279B" fill-opacity="0.05" stroke="black"/>
<path opacity="0.35" d="M3604.15 485.221C3604.15 492.485 3598.26 498.374 3591 498.374C3583.74 498.374 3577.85 492.485 3577.85 485.221C3577.85 477.957 3583.74 472.069 3591 472.069C3598.26 472.069 3604.15 477.957 3604.15 485.221Z" fill="#4F279B" fill-opacity="0.05" stroke="black"/>
<path d="M40.7616 694.832C40.7616 702.096 34.8731 707.985 27.6093 707.985C20.3455 707.985 14.457 702.096 14.457 694.832C14.457 687.568 20.3455 681.68 27.6093 681.68C34.8731 681.68 40.7616 687.568 40.7616 694.832Z" fill="#4F279B" fill-opacity="0.05" stroke="black"/>
<path d="M250.375 694.832C250.375 702.096 244.486 707.985 237.223 707.985C229.959 707.985 224.07 702.096 224.07 694.832C224.07 687.568 229.959 681.68 237.223 681.68C244.486 681.68 250.375 687.568 250.375 694.832Z" fill="#4F279B" fill-opacity="0.05" stroke="black"/>
<path opacity="0.35" d="M459.986 694.832C459.986 702.096 454.098 707.985 446.834 707.985C439.57 707.985 433.682 702.096 433.682 694.832C433.682 687.568 439.57 681.68 446.834 681.68C454.098 681.68 459.986 687.568 459.986 694.832Z" fill="#4F279B" fill-opacity="0.05" stroke="black"/>
<path d="M669.598 694.832C669.598 702.096 663.709 707.985 656.445 707.985C649.181 707.985 643.293 702.096 643.293 694.832C643.293 687.568 649.181 681.68 656.445 681.68C663.709 681.68 669.598 687.568 669.598 694.832Z" fill="#4F279B" fill-opacity="0.05" stroke="black"/>
<path opacity="0.35" d="M879.209 694.832C879.209 702.096 873.32 707.985 866.057 707.985C858.793 707.985 852.904 702.096 852.904 694.832C852.904 687.568 858.793 681.68 866.057 681.68C873.32 681.68 879.209 687.568 879.209 694.832Z" fill="#4F279B" fill-opacity="0.05" stroke="black"/>
<path d="M1088.82 694.832C1088.82 702.096 1082.93 707.985 1075.67 707.985C1068.4 707.985 1062.52 702.096 1062.52 694.832C1062.52 687.568 1068.4 681.68 1075.67 681.68C1082.93 681.68 1088.82 687.568 1088.82 694.832Z" fill="#4F279B" fill-opacity="0.05" stroke="black"/>
<path opacity="0.35" d="M1298.43 694.832C1298.43 702.096 1292.54 707.985 1285.28 707.985C1278.02 707.985 1272.13 702.096 1272.13 694.832C1272.13 687.568 1278.02 681.68 1285.28 681.68C1292.54 681.68 1298.43 687.568 1298.43 694.832Z" fill="#4F279B" fill-opacity="0.05" stroke="black"/>
<path opacity="0.35" d="M1508.04 694.832C1508.04 702.096 1502.15 707.985 1494.89 707.985C1487.62 707.985 1481.74 702.096 1481.74 694.832C1481.74 687.568 1487.62 681.68 1494.89 681.68C1502.15 681.68 1508.04 687.568 1508.04 694.832Z" fill="#4F279B" fill-opacity="0.05" stroke="black"/>
<path d="M1717.65 694.832C1717.65 702.096 1711.76 707.985 1704.5 707.985C1697.24 707.985 1691.35 702.096 1691.35 694.832C1691.35 687.568 1697.24 681.68 1704.5 681.68C1711.76 681.68 1717.65 687.568 1717.65 694.832Z" fill="#4F279B" fill-opacity="0.05" stroke="black"/>
<path d="M1927.26 694.832C1927.26 702.096 1921.38 707.985 1914.11 707.985C1906.85 707.985 1900.96 702.096 1900.96 694.832C1900.96 687.568 1906.85 681.68 1914.11 681.68C1921.38 681.68 1927.26 687.568 1927.26 694.832Z" fill="#4F279B" fill-opacity="0.05" stroke="black"/>
<path opacity="0.35" d="M2136.87 694.832C2136.87 702.096 2130.99 707.985 2123.72 707.985C2116.46 707.985 2110.57 702.096 2110.57 694.832C2110.57 687.568 2116.46 681.68 2123.72 681.68C2130.99 681.68 2136.87 687.568 2136.87 694.832Z" fill="#4F279B" fill-opacity="0.05" stroke="black"/>
<path opacity="0.35" d="M2346.48 694.832C2346.48 702.096 2340.6 707.985 2333.33 707.985C2326.07 707.985 2320.18 702.096 2320.18 694.832C2320.18 687.568 2326.07 681.68 2333.33 681.68C2340.6 681.68 2346.48 687.568 2346.48 694.832Z" fill="#4F279B" fill-opacity="0.05" stroke="black"/>
<path opacity="0.35" d="M2556.1 694.832C2556.1 702.096 2550.21 707.985 2542.95 707.985C2535.68 707.985 2529.79 702.096 2529.79 694.832C2529.79 687.568 2535.68 681.68 2542.95 681.68C2550.21 681.68 2556.1 687.568 2556.1 694.832Z" fill="#4F279B" fill-opacity="0.05" stroke="black"/>
<path opacity="0.35" d="M2765.71 694.832C2765.71 702.096 2759.82 707.985 2752.56 707.985C2745.29 707.985 2739.4 702.096 2739.4 694.832C2739.4 687.568 2745.29 681.68 2752.56 681.68C2759.82 681.68 2765.71 687.568 2765.71 694.832Z" fill="#4F279B" fill-opacity="0.05" stroke="black"/>
<path opacity="0.35" d="M2975.32 694.832C2975.32 702.096 2969.43 707.985 2962.17 707.985C2954.9 707.985 2949.02 702.096 2949.02 694.832C2949.02 687.568 2954.9 681.68 2962.17 681.68C2969.43 681.68 2975.32 687.568 2975.32 694.832Z" fill="#4F279B" fill-opacity="0.05" stroke="black"/>
<path opacity="0.35" d="M3184.93 694.832C3184.93 702.096 3179.04 707.985 3171.78 707.985C3164.51 707.985 3158.62 702.096 3158.62 694.832C3158.62 687.568 3164.51 681.68 3171.78 681.68C3179.04 681.68 3184.93 687.568 3184.93 694.832Z" fill="#4F279B" fill-opacity="0.05" stroke="black"/>
<path opacity="0.35" d="M3394.54 694.832C3394.54 702.096 3388.65 707.985 3381.39 707.985C3374.12 707.985 3368.23 702.096 3368.23 694.832C3368.23 687.568 3374.12 681.68 3381.39 681.68C3388.65 681.68 3394.54 687.568 3394.54 694.832Z" fill="#4F279B" fill-opacity="0.05" stroke="black"/>
<path opacity="0.35" d="M3604.15 694.832C3604.15 702.096 3598.26 707.985 3591 707.985C3583.74 707.985 3577.85 702.096 3577.85 694.832C3577.85 687.568 3583.74 681.68 3591 681.68C3598.26 681.68 3604.15 687.568 3604.15 694.832Z" fill="#4F279B" fill-opacity="0.05" stroke="black"/>
<path opacity="0.35" d="M40.7616 904.443C40.7616 911.707 34.8731 917.595 27.6093 917.595C20.3455 917.595 14.457 911.707 14.457 904.443C14.457 897.179 20.3455 891.291 27.6093 891.291C34.8731 891.291 40.7616 897.179 40.7616 904.443Z" fill="#4F279B" fill-opacity="0.05" stroke="black"/>
<path opacity="0.35" d="M250.375 904.443C250.375 911.707 244.486 917.595 237.223 917.595C229.959 917.595 224.07 911.707 224.07 904.443C224.07 897.179 229.959 891.291 237.223 891.291C244.486 891.291 250.375 897.179 250.375 904.443Z" fill="#4F279B" fill-opacity="0.05" stroke="black"/>
<path opacity="0.35" d="M459.986 904.443C459.986 911.707 454.098 917.595 446.834 917.595C439.57 917.595 433.682 911.707 433.682 904.443C433.682 897.179 439.57 891.291 446.834 891.291C454.098 891.291 459.986 897.179 459.986 904.443Z" fill="#4F279B" fill-opacity="0.05" stroke="black"/>
<path opacity="0.35" d="M669.598 904.443C669.598 911.707 663.709 917.595 656.445 917.595C649.181 917.595 643.293 911.707 643.293 904.443C643.293 897.179 649.181 891.291 656.445 891.291C663.709 891.291 669.598 897.179 669.598 904.443Z" fill="#4F279B" fill-opacity="0.05" stroke="black"/>
<path opacity="0.35" d="M879.209 904.443C879.209 911.707 873.32 917.595 866.057 917.595C858.793 917.595 852.904 911.707 852.904 904.443C852.904 897.179 858.793 891.291 866.057 891.291C873.32 891.291 879.209 897.179 879.209 904.443Z" fill="#4F279B" fill-opacity="0.05" stroke="black"/>
<path opacity="0.35" d="M1088.82 904.443C1088.82 911.707 1082.93 917.595 1075.67 917.595C1068.4 917.595 1062.52 911.707 1062.52 904.443C1062.52 897.179 1068.4 891.291 1075.67 891.291C1082.93 891.291 1088.82 897.179 1088.82 904.443Z" fill="#4F279B" fill-opacity="0.05" stroke="black"/>
<path d="M1298.43 904.443C1298.43 911.707 1292.54 917.595 1285.28 917.595C1278.02 917.595 1272.13 911.707 1272.13 904.443C1272.13 897.179 1278.02 891.291 1285.28 891.291C1292.54 891.291 1298.43 897.179 1298.43 904.443Z" fill="#4F279B" fill-opacity="0.05" stroke="black"/>
<path opacity="0.35" d="M1508.04 904.443C1508.04 911.707 1502.15 917.595 1494.89 917.595C1487.62 917.595 1481.74 911.707 1481.74 904.443C1481.74 897.179 1487.62 891.291 1494.89 891.291C1502.15 891.291 1508.04 897.179 1508.04 904.443Z" fill="#4F279B" fill-opacity="0.05" stroke="black"/>
<path d="M1717.65 904.443C1717.65 911.707 1711.76 917.595 1704.5 917.595C1697.24 917.595 1691.35 911.707 1691.35 904.443C1691.35 897.179 1697.24 891.291 1704.5 891.291C1711.76 891.291 1717.65 897.179 1717.65 904.443Z" fill="#4F279B" fill-opacity="0.05" stroke="black"/>
<path opacity="0.35" d="M1927.26 904.443C1927.26 911.707 1921.38 917.595 1914.11 917.595C1906.85 917.595 1900.96 911.707 1900.96 904.443C1900.96 897.179 1906.85 891.291 1914.11 891.291C1921.38 891.291 1927.26 897.179 1927.26 904.443Z" fill="#4F279B" fill-opacity="0.05" stroke="black"/>
<path d="M2136.87 904.443C2136.87 911.707 2130.99 917.595 2123.72 917.595C2116.46 917.595 2110.57 911.707 2110.57 904.443C2110.57 897.179 2116.46 891.291 2123.72 891.291C2130.99 891.291 2136.87 897.179 2136.87 904.443Z" fill="#4F279B" fill-opacity="0.05" stroke="black"/>
<path opacity="0.35" d="M2346.48 904.443C2346.48 911.707 2340.6 917.595 2333.33 917.595C2326.07 917.595 2320.18 911.707 2320.18 904.443C2320.18 897.179 2326.07 891.291 2333.33 891.291C2340.6 891.291 2346.48 897.179 2346.48 904.443Z" fill="#4F279B" fill-opacity="0.05" stroke="black"/>
<path d="M2556.1 904.443C2556.1 911.707 2550.21 917.595 2542.95 917.595C2535.68 917.595 2529.79 911.707 2529.79 904.443C2529.79 897.179 2535.68 891.291 2542.95 891.291C2550.21 891.291 2556.1 897.179 2556.1 904.443Z" fill="#4F279B" fill-opacity="0.05" stroke="black"/>
<path opacity="0.35" d="M2765.71 904.443C2765.71 911.707 2759.82 917.595 2752.56 917.595C2745.29 917.595 2739.4 911.707 2739.4 904.443C2739.4 897.179 2745.29 891.291 2752.56 891.291C2759.82 891.291 2765.71 897.179 2765.71 904.443Z" fill="#4F279B" fill-opacity="0.05" stroke="black"/>
<path opacity="0.35" d="M2975.32 904.443C2975.32 911.707 2969.43 917.595 2962.17 917.595C2954.9 917.595 2949.02 911.707 2949.02 904.443C2949.02 897.179 2954.9 891.291 2962.17 891.291C2969.43 891.291 2975.32 897.179 2975.32 904.443Z" fill="#4F279B" fill-opacity="0.05" stroke="black"/>
<path opacity="0.35" d="M3184.93 904.443C3184.93 911.707 3179.04 917.595 3171.78 917.595C3164.51 917.595 3158.62 911.707 3158.62 904.443C3158.62 897.179 3164.51 891.291 3171.78 891.291C3179.04 891.291 3184.93 897.179 3184.93 904.443Z" fill="#4F279B" fill-opacity="0.05" stroke="black"/>
<path opacity="0.35" d="M3394.54 904.443C3394.54 911.707 3388.65 917.595 3381.39 917.595C3374.12 917.595 3368.23 911.707 3368.23 904.443C3368.23 897.179 3374.12 891.291 3381.39 891.291C3388.65 891.291 3394.54 897.179 3394.54 904.443Z" fill="#4F279B" fill-opacity="0.05" stroke="black"/>
<path opacity="0.35" d="M3604.15 904.443C3604.15 911.707 3598.26 917.595 3591 917.595C3583.74 917.595 3577.85 911.707 3577.85 904.443C3577.85 897.179 3583.74 891.291 3591 891.291C3598.26 891.291 3604.15 897.179 3604.15 904.443Z" fill="#4F279B" fill-opacity="0.05" stroke="black"/>
<path opacity="0.35" d="M40.7616 1114.05C40.7616 1121.32 34.8731 1127.21 27.6093 1127.21C20.3455 1127.21 14.457 1121.32 14.457 1114.05C14.457 1106.79 20.3455 1100.9 27.6093 1100.9C34.8731 1100.9 40.7616 1106.79 40.7616 1114.05Z" fill="#4F279B" fill-opacity="0.05" stroke="black"/>
<path d="M250.375 1114.05C250.375 1121.32 244.486 1127.21 237.223 1127.21C229.959 1127.21 224.07 1121.32 224.07 1114.05C224.07 1106.79 229.959 1100.9 237.223 1100.9C244.486 1100.9 250.375 1106.79 250.375 1114.05Z" fill="#4F279B" fill-opacity="0.05" stroke="black"/>
<path opacity="0.35" d="M459.986 1114.05C459.986 1121.32 454.098 1127.21 446.834 1127.21C439.57 1127.21 433.682 1121.32 433.682 1114.05C433.682 1106.79 439.57 1100.9 446.834 1100.9C454.098 1100.9 459.986 1106.79 459.986 1114.05Z" fill="#4F279B" fill-opacity="0.05" stroke="black"/>
<path opacity="0.35" d="M669.598 1114.05C669.598 1121.32 663.709 1127.21 656.445 1127.21C649.181 1127.21 643.293 1121.32 643.293 1114.05C643.293 1106.79 649.181 1100.9 656.445 1100.9C663.709 1100.9 669.598 1106.79 669.598 1114.05Z" fill="#4F279B" fill-opacity="0.05" stroke="black"/>
<path opacity="0.35" d="M879.209 1114.05C879.209 1121.32 873.32 1127.21 866.057 1127.21C858.793 1127.21 852.904 1121.32 852.904 1114.05C852.904 1106.79 858.793 1100.9 866.057 1100.9C873.32 1100.9 879.209 1106.79 879.209 1114.05Z" fill="#4F279B" fill-opacity="0.05" stroke="black"/>
<path d="M1088.82 1114.05C1088.82 1121.32 1082.93 1127.21 1075.67 1127.21C1068.4 1127.21 1062.52 1121.32 1062.52 1114.05C1062.52 1106.79 1068.4 1100.9 1075.67 1100.9C1082.93 1100.9 1088.82 1106.79 1088.82 1114.05Z" fill="#4F279B" fill-opacity="0.05" stroke="black"/>
<path d="M1298.43 1114.05C1298.43 1121.32 1292.54 1127.21 1285.28 1127.21C1278.02 1127.21 1272.13 1121.32 1272.13 1114.05C1272.13 1106.79 1278.02 1100.9 1285.28 1100.9C1292.54 1100.9 1298.43 1106.79 1298.43 1114.05Z" fill="#4F279B" fill-opacity="0.05" stroke="black"/>
<path opacity="0.35" d="M1508.04 1114.05C1508.04 1121.32 1502.15 1127.21 1494.89 1127.21C1487.62 1127.21 1481.74 1121.32 1481.74 1114.05C1481.74 1106.79 1487.62 1100.9 1494.89 1100.9C1502.15 1100.9 1508.04 1106.79 1508.04 1114.05Z" fill="#4F279B" fill-opacity="0.05" stroke="black"/>
<path d="M1717.65 1114.05C1717.65 1121.32 1711.76 1127.21 1704.5 1127.21C1697.24 1127.21 1691.35 1121.32 1691.35 1114.05C1691.35 1106.79 1697.24 1100.9 1704.5 1100.9C1711.76 1100.9 1717.65 1106.79 1717.65 1114.05Z" fill="#4F279B" fill-opacity="0.05" stroke="black"/>
<path opacity="0.35" d="M1927.26 1114.05C1927.26 1121.32 1921.38 1127.21 1914.11 1127.21C1906.85 1127.21 1900.96 1121.32 1900.96 1114.05C1900.96 1106.79 1906.85 1100.9 1914.11 1100.9C1921.38 1100.9 1927.26 1106.79 1927.26 1114.05Z" fill="#4F279B" fill-opacity="0.05" stroke="black"/>
<path opacity="0.35" d="M2136.87 1114.05C2136.87 1121.32 2130.99 1127.21 2123.72 1127.21C2116.46 1127.21 2110.57 1121.32 2110.57 1114.05C2110.57 1106.79 2116.46 1100.9 2123.72 1100.9C2130.99 1100.9 2136.87 1106.79 2136.87 1114.05Z" fill="#4F279B" fill-opacity="0.05" stroke="black"/>
<path opacity="0.35" d="M2346.48 1114.05C2346.48 1121.32 2340.6 1127.21 2333.33 1127.21C2326.07 1127.21 2320.18 1121.32 2320.18 1114.05C2320.18 1106.79 2326.07 1100.9 2333.33 1100.9C2340.6 1100.9 2346.48 1106.79 2346.48 1114.05Z" fill="#4F279B" fill-opacity="0.05" stroke="black"/>
<path opacity="0.35" d="M2556.1 1114.05C2556.1 1121.32 2550.21 1127.21 2542.95 1127.21C2535.68 1127.21 2529.79 1121.32 2529.79 1114.05C2529.79 1106.79 2535.68 1100.9 2542.95 1100.9C2550.21 1100.9 2556.1 1106.79 2556.1 1114.05Z" fill="#4F279B" fill-opacity="0.05" stroke="black"/>
<path opacity="0.35" d="M2765.71 1114.05C2765.71 1121.32 2759.82 1127.21 2752.56 1127.21C2745.29 1127.21 2739.4 1121.32 2739.4 1114.05C2739.4 1106.79 2745.29 1100.9 2752.56 1100.9C2759.82 1100.9 2765.71 1106.79 2765.71 1114.05Z" fill="#4F279B" fill-opacity="0.05" stroke="black"/>
<path opacity="0.35" d="M2975.32 1114.05C2975.32 1121.32 2969.43 1127.21 2962.17 1127.21C2954.9 1127.21 2949.02 1121.32 2949.02 1114.05C2949.02 1106.79 2954.9 1100.9 2962.17 1100.9C2969.43 1100.9 2975.32 1106.79 2975.32 1114.05Z" fill="#4F279B" fill-opacity="0.05" stroke="black"/>
<path opacity="0.35" d="M3184.93 1114.05C3184.93 1121.32 3179.04 1127.21 3171.78 1127.21C3164.51 1127.21 3158.62 1121.32 3158.62 1114.05C3158.62 1106.79 3164.51 1100.9 3171.78 1100.9C3179.04 1100.9 3184.93 1106.79 3184.93 1114.05Z" fill="#4F279B" fill-opacity="0.05" stroke="black"/>
<path d="M3394.54 1114.05C3394.54 1121.32 3388.65 1127.21 3381.39 1127.21C3374.12 1127.21 3368.23 1121.32 3368.23 1114.05C3368.23 1106.79 3374.12 1100.9 3381.39 1100.9C3388.65 1100.9 3394.54 1106.79 3394.54 1114.05Z" fill="#4F279B" fill-opacity="0.05" stroke="black"/>
<path opacity="0.35" d="M3604.15 1114.05C3604.15 1121.32 3598.26 1127.21 3591 1127.21C3583.74 1127.21 3577.85 1121.32 3577.85 1114.05C3577.85 1106.79 3583.74 1100.9 3591 1100.9C3598.26 1100.9 3604.15 1106.79 3604.15 1114.05Z" fill="#4F279B" fill-opacity="0.05" stroke="black"/>
<path d="M40.7616 1323.67C40.7616 1330.93 34.8731 1336.82 27.6093 1336.82C20.3455 1336.82 14.457 1330.93 14.457 1323.67C14.457 1316.4 20.3455 1310.51 27.6093 1310.51C34.8731 1310.51 40.7616 1316.4 40.7616 1323.67Z" fill="#4F279B" fill-opacity="0.05" stroke="black"/>
<path opacity="0.35" d="M250.375 1323.67C250.375 1330.93 244.486 1336.82 237.223 1336.82C229.959 1336.82 224.07 1330.93 224.07 1323.67C224.07 1316.4 229.959 1310.51 237.223 1310.51C244.486 1310.51 250.375 1316.4 250.375 1323.67Z" fill="#4F279B" fill-opacity="0.05" stroke="black"/>
<path opacity="0.35" d="M459.986 1323.67C459.986 1330.93 454.098 1336.82 446.834 1336.82C439.57 1336.82 433.682 1330.93 433.682 1323.67C433.682 1316.4 439.57 1310.51 446.834 1310.51C454.098 1310.51 459.986 1316.4 459.986 1323.67Z" fill="#4F279B" fill-opacity="0.05" stroke="black"/>
<path opacity="0.35" d="M669.598 1323.67C669.598 1330.93 663.709 1336.82 656.445 1336.82C649.181 1336.82 643.293 1330.93 643.293 1323.67C643.293 1316.4 649.181 1310.51 656.445 1310.51C663.709 1310.51 669.598 1316.4 669.598 1323.67Z" fill="#4F279B" fill-opacity="0.05" stroke="black"/>
<path d="M879.209 1323.67C879.209 1330.93 873.32 1336.82 866.057 1336.82C858.793 1336.82 852.904 1330.93 852.904 1323.67C852.904 1316.4 858.793 1310.51 866.057 1310.51C873.32 1310.51 879.209 1316.4 879.209 1323.67Z" fill="#4F279B" fill-opacity="0.05" stroke="black"/>
<path d="M1088.82 1323.67C1088.82 1330.93 1082.93 1336.82 1075.67 1336.82C1068.4 1336.82 1062.52 1330.93 1062.52 1323.67C1062.52 1316.4 1068.4 1310.51 1075.67 1310.51C1082.93 1310.51 1088.82 1316.4 1088.82 1323.67Z" fill="#4F279B" fill-opacity="0.05" stroke="black"/>
<path opacity="0.35" d="M1298.43 1323.67C1298.43 1330.93 1292.54 1336.82 1285.28 1336.82C1278.02 1336.82 1272.13 1330.93 1272.13 1323.67C1272.13 1316.4 1278.02 1310.51 1285.28 1310.51C1292.54 1310.51 1298.43 1316.4 1298.43 1323.67Z" fill="#4F279B" fill-opacity="0.05" stroke="black"/>
<path opacity="0.35" d="M1508.04 1323.67C1508.04 1330.93 1502.15 1336.82 1494.89 1336.82C1487.62 1336.82 1481.74 1330.93 1481.74 1323.67C1481.74 1316.4 1487.62 1310.51 1494.89 1310.51C1502.15 1310.51 1508.04 1316.4 1508.04 1323.67Z" fill="#4F279B" fill-opacity="0.05" stroke="black"/>
<path opacity="0.35" d="M1717.65 1323.67C1717.65 1330.93 1711.76 1336.82 1704.5 1336.82C1697.24 1336.82 1691.35 1330.93 1691.35 1323.67C1691.35 1316.4 1697.24 1310.51 1704.5 1310.51C1711.76 1310.51 1717.65 1316.4 1717.65 1323.67Z" fill="#4F279B" fill-opacity="0.05" stroke="black"/>
<path opacity="0.35" d="M1927.26 1323.67C1927.26 1330.93 1921.38 1336.82 1914.11 1336.82C1906.85 1336.82 1900.96 1330.93 1900.96 1323.67C1900.96 1316.4 1906.85 1310.51 1914.11 1310.51C1921.38 1310.51 1927.26 1316.4 1927.26 1323.67Z" fill="#4F279B" fill-opacity="0.05" stroke="black"/>
<path opacity="0.35" d="M2136.87 1323.67C2136.87 1330.93 2130.99 1336.82 2123.72 1336.82C2116.46 1336.82 2110.57 1330.93 2110.57 1323.67C2110.57 1316.4 2116.46 1310.51 2123.72 1310.51C2130.99 1310.51 2136.87 1316.4 2136.87 1323.67Z" fill="#4F279B" fill-opacity="0.05" stroke="black"/>
<path opacity="0.35" d="M2346.48 1323.67C2346.48 1330.93 2340.6 1336.82 2333.33 1336.82C2326.07 1336.82 2320.18 1330.93 2320.18 1323.67C2320.18 1316.4 2326.07 1310.51 2333.33 1310.51C2340.6 1310.51 2346.48 1316.4 2346.48 1323.67Z" fill="#4F279B" fill-opacity="0.05" stroke="black"/>
<path opacity="0.35" d="M2556.1 1323.67C2556.1 1330.93 2550.21 1336.82 2542.95 1336.82C2535.68 1336.82 2529.79 1330.93 2529.79 1323.67C2529.79 1316.4 2535.68 1310.51 2542.95 1310.51C2550.21 1310.51 2556.1 1316.4 2556.1 1323.67Z" fill="#4F279B" fill-opacity="0.05" stroke="black"/>
<path opacity="0.35" d="M2765.71 1323.67C2765.71 1330.93 2759.82 1336.82 2752.56 1336.82C2745.29 1336.82 2739.4 1330.93 2739.4 1323.67C2739.4 1316.4 2745.29 1310.51 2752.56 1310.51C2759.82 1310.51 2765.71 1316.4 2765.71 1323.67Z" fill="#4F279B" fill-opacity="0.05" stroke="black"/>
<path d="M2975.32 1323.67C2975.32 1330.93 2969.43 1336.82 2962.17 1336.82C2954.9 1336.82 2949.02 1330.93 2949.02 1323.67C2949.02 1316.4 2954.9 1310.51 2962.17 1310.51C2969.43 1310.51 2975.32 1316.4 2975.32 1323.67Z" fill="#4F279B" fill-opacity="0.05" stroke="black"/>
<path opacity="0.35" d="M3184.93 1323.67C3184.93 1330.93 3179.04 1336.82 3171.78 1336.82C3164.51 1336.82 3158.62 1330.93 3158.62 1323.67C3158.62 1316.4 3164.51 1310.51 3171.78 1310.51C3179.04 1310.51 3184.93 1316.4 3184.93 1323.67Z" fill="#4F279B" fill-opacity="0.05" stroke="black"/>
<path d="M3394.54 1323.67C3394.54 1330.93 3388.65 1336.82 3381.39 1336.82C3374.12 1336.82 3368.23 1330.93 3368.23 1323.67C3368.23 1316.4 3374.12 1310.51 3381.39 1310.51C3388.65 1310.51 3394.54 1316.4 3394.54 1323.67Z" fill="#4F279B" fill-opacity="0.05" stroke="black"/>
<path opacity="0.35" d="M3604.15 1323.67C3604.15 1330.93 3598.26 1336.82 3591 1336.82C3583.74 1336.82 3577.85 1330.93 3577.85 1323.67C3577.85 1316.4 3583.74 1310.51 3591 1310.51C3598.26 1310.51 3604.15 1316.4 3604.15 1323.67Z" fill="#4F279B" fill-opacity="0.05" stroke="black"/>
<path opacity="0.35" d="M40.7616 1533.28C40.7616 1540.54 34.8731 1546.43 27.6093 1546.43C20.3455 1546.43 14.457 1540.54 14.457 1533.28C14.457 1526.01 20.3455 1520.12 27.6093 1520.12C34.8731 1520.12 40.7616 1526.01 40.7616 1533.28Z" fill="#4F279B" fill-opacity="0.05" stroke="black"/>
<path opacity="0.35" d="M250.375 1533.28C250.375 1540.54 244.486 1546.43 237.223 1546.43C229.959 1546.43 224.07 1540.54 224.07 1533.28C224.07 1526.01 229.959 1520.12 237.223 1520.12C244.486 1520.12 250.375 1526.01 250.375 1533.28Z" fill="#4F279B" fill-opacity="0.05" stroke="black"/>
<path d="M459.986 1533.28C459.986 1540.54 454.098 1546.43 446.834 1546.43C439.57 1546.43 433.682 1540.54 433.682 1533.28C433.682 1526.01 439.57 1520.12 446.834 1520.12C454.098 1520.12 459.986 1526.01 459.986 1533.28Z" fill="#4F279B" fill-opacity="0.05" stroke="black"/>
<path d="M669.598 1533.28C669.598 1540.54 663.709 1546.43 656.445 1546.43C649.181 1546.43 643.293 1540.54 643.293 1533.28C643.293 1526.01 649.181 1520.12 656.445 1520.12C663.709 1520.12 669.598 1526.01 669.598 1533.28Z" fill="#4F279B" fill-opacity="0.05" stroke="black"/>
<path opacity="0.35" d="M879.209 1533.28C879.209 1540.54 873.32 1546.43 866.057 1546.43C858.793 1546.43 852.904 1540.54 852.904 1533.28C852.904 1526.01 858.793 1520.12 866.057 1520.12C873.32 1520.12 879.209 1526.01 879.209 1533.28Z" fill="#4F279B" fill-opacity="0.05" stroke="black"/>
<path opacity="0.35" d="M1088.82 1533.28C1088.82 1540.54 1082.93 1546.43 1075.67 1546.43C1068.4 1546.43 1062.52 1540.54 1062.52 1533.28C1062.52 1526.01 1068.4 1520.12 1075.67 1520.12C1082.93 1520.12 1088.82 1526.01 1088.82 1533.28Z" fill="#4F279B" fill-opacity="0.05" stroke="black"/>
<path d="M1298.43 1533.28C1298.43 1540.54 1292.54 1546.43 1285.28 1546.43C1278.02 1546.43 1272.13 1540.54 1272.13 1533.28C1272.13 1526.01 1278.02 1520.12 1285.28 1520.12C1292.54 1520.12 1298.43 1526.01 1298.43 1533.28Z" fill="#4F279B" fill-opacity="0.05" stroke="black"/>
<path d="M1508.04 1533.28C1508.04 1540.54 1502.15 1546.43 1494.89 1546.43C1487.62 1546.43 1481.74 1540.54 1481.74 1533.28C1481.74 1526.01 1487.62 1520.12 1494.89 1520.12C1502.15 1520.12 1508.04 1526.01 1508.04 1533.28Z" fill="#4F279B" fill-opacity="0.05" stroke="black"/>
<path opacity="0.35" d="M1717.65 1533.28C1717.65 1540.54 1711.76 1546.43 1704.5 1546.43C1697.24 1546.43 1691.35 1540.54 1691.35 1533.28C1691.35 1526.01 1697.24 1520.12 1704.5 1520.12C1711.76 1520.12 1717.65 1526.01 1717.65 1533.28Z" fill="#4F279B" fill-opacity="0.05" stroke="black"/>
<path opacity="0.35" d="M1927.26 1533.28C1927.26 1540.54 1921.38 1546.43 1914.11 1546.43C1906.85 1546.43 1900.96 1540.54 1900.96 1533.28C1900.96 1526.01 1906.85 1520.12 1914.11 1520.12C1921.38 1520.12 1927.26 1526.01 1927.26 1533.28Z" fill="#4F279B" fill-opacity="0.05" stroke="black"/>
<path d="M2136.87 1533.28C2136.87 1540.54 2130.99 1546.43 2123.72 1546.43C2116.46 1546.43 2110.57 1540.54 2110.57 1533.28C2110.57 1526.01 2116.46 1520.12 2123.72 1520.12C2130.99 1520.12 2136.87 1526.01 2136.87 1533.28Z" fill="#4F279B" fill-opacity="0.05" stroke="black"/>
<path d="M2346.48 1533.28C2346.48 1540.54 2340.6 1546.43 2333.33 1546.43C2326.07 1546.43 2320.18 1540.54 2320.18 1533.28C2320.18 1526.01 2326.07 1520.12 2333.33 1520.12C2340.6 1520.12 2346.48 1526.01 2346.48 1533.28Z" fill="#4F279B" fill-opacity="0.05" stroke="black"/>
<path opacity="0.35" d="M2556.1 1533.28C2556.1 1540.54 2550.21 1546.43 2542.95 1546.43C2535.68 1546.43 2529.79 1540.54 2529.79 1533.28C2529.79 1526.01 2535.68 1520.12 2542.95 1520.12C2550.21 1520.12 2556.1 1526.01 2556.1 1533.28Z" fill="#4F279B" fill-opacity="0.05" stroke="black"/>
<path opacity="0.35" d="M2765.71 1533.28C2765.71 1540.54 2759.82 1546.43 2752.56 1546.43C2745.29 1546.43 2739.4 1540.54 2739.4 1533.28C2739.4 1526.01 2745.29 1520.12 2752.56 1520.12C2759.82 1520.12 2765.71 1526.01 2765.71 1533.28Z" fill="#4F279B" fill-opacity="0.05" stroke="black"/>
<path opacity="0.35" d="M2975.32 1533.28C2975.32 1540.54 2969.43 1546.43 2962.17 1546.43C2954.9 1546.43 2949.02 1540.54 2949.02 1533.28C2949.02 1526.01 2954.9 1520.12 2962.17 1520.12C2969.43 1520.12 2975.32 1526.01 2975.32 1533.28Z" fill="#4F279B" fill-opacity="0.05" stroke="black"/>
<path opacity="0.35" d="M3184.93 1533.28C3184.93 1540.54 3179.04 1546.43 3171.78 1546.43C3164.51 1546.43 3158.62 1540.54 3158.62 1533.28C3158.62 1526.01 3164.51 1520.12 3171.78 1520.12C3179.04 1520.12 3184.93 1526.01 3184.93 1533.28Z" fill="#4F279B" fill-opacity="0.05" stroke="black"/>
<path opacity="0.35" d="M3394.54 1533.28C3394.54 1540.54 3388.65 1546.43 3381.39 1546.43C3374.12 1546.43 3368.23 1540.54 3368.23 1533.28C3368.23 1526.01 3374.12 1520.12 3381.39 1520.12C3388.65 1520.12 3394.54 1526.01 3394.54 1533.28Z" fill="#4F279B" fill-opacity="0.05" stroke="black"/>
<path opacity="0.35" d="M3604.15 1533.28C3604.15 1540.54 3598.26 1546.43 3591 1546.43C3583.74 1546.43 3577.85 1540.54 3577.85 1533.28C3577.85 1526.01 3583.74 1520.12 3591 1520.12C3598.26 1520.12 3604.15 1526.01 3604.15 1533.28Z" fill="#4F279B" fill-opacity="0.05" stroke="black"/>
<path opacity="0.35" d="M40.7616 1742.89C40.7616 1750.15 34.8731 1756.04 27.6093 1756.04C20.3455 1756.04 14.457 1750.15 14.457 1742.89C14.457 1735.62 20.3455 1729.74 27.6093 1729.74C34.8731 1729.74 40.7616 1735.62 40.7616 1742.89Z" fill="#4F279B" fill-opacity="0.05" stroke="black"/>
<path opacity="0.35" d="M250.375 1742.89C250.375 1750.15 244.486 1756.04 237.223 1756.04C229.959 1756.04 224.07 1750.15 224.07 1742.89C224.07 1735.62 229.959 1729.74 237.223 1729.74C244.486 1729.74 250.375 1735.62 250.375 1742.89Z" fill="#4F279B" fill-opacity="0.05" stroke="black"/>
<path opacity="0.35" d="M459.986 1742.89C459.986 1750.15 454.098 1756.04 446.834 1756.04C439.57 1756.04 433.682 1750.15 433.682 1742.89C433.682 1735.62 439.57 1729.74 446.834 1729.74C454.098 1729.74 459.986 1735.62 459.986 1742.89Z" fill="#4F279B" fill-opacity="0.05" stroke="black"/>
<path d="M669.598 1742.89C669.598 1750.15 663.709 1756.04 656.445 1756.04C649.181 1756.04 643.293 1750.15 643.293 1742.89C643.293 1735.62 649.181 1729.74 656.445 1729.74C663.709 1729.74 669.598 1735.62 669.598 1742.89Z" fill="#4F279B" fill-opacity="0.05" stroke="black"/>
<path opacity="0.35" d="M879.209 1742.89C879.209 1750.15 873.32 1756.04 866.057 1756.04C858.793 1756.04 852.904 1750.15 852.904 1742.89C852.904 1735.62 858.793 1729.74 866.057 1729.74C873.32 1729.74 879.209 1735.62 879.209 1742.89Z" fill="#4F279B" fill-opacity="0.05" stroke="black"/>
<path opacity="0.35" d="M1088.82 1742.89C1088.82 1750.15 1082.93 1756.04 1075.67 1756.04C1068.4 1756.04 1062.52 1750.15 1062.52 1742.89C1062.52 1735.62 1068.4 1729.74 1075.67 1729.74C1082.93 1729.74 1088.82 1735.62 1088.82 1742.89Z" fill="#4F279B" fill-opacity="0.05" stroke="black"/>
<path opacity="0.35" d="M1298.43 1742.89C1298.43 1750.15 1292.54 1756.04 1285.28 1756.04C1278.02 1756.04 1272.13 1750.15 1272.13 1742.89C1272.13 1735.62 1278.02 1729.74 1285.28 1729.74C1292.54 1729.74 1298.43 1735.62 1298.43 1742.89Z" fill="#4F279B" fill-opacity="0.05" stroke="black"/>
<path opacity="0.35" d="M1508.04 1742.89C1508.04 1750.15 1502.15 1756.04 1494.89 1756.04C1487.62 1756.04 1481.74 1750.15 1481.74 1742.89C1481.74 1735.62 1487.62 1729.74 1494.89 1729.74C1502.15 1729.74 1508.04 1735.62 1508.04 1742.89Z" fill="#4F279B" fill-opacity="0.05" stroke="black"/>
<path opacity="0.35" d="M1717.65 1742.89C1717.65 1750.15 1711.76 1756.04 1704.5 1756.04C1697.24 1756.04 1691.35 1750.15 1691.35 1742.89C1691.35 1735.62 1697.24 1729.74 1704.5 1729.74C1711.76 1729.74 1717.65 1735.62 1717.65 1742.89Z" fill="#4F279B" fill-opacity="0.05" stroke="black"/>
<path opacity="0.35" d="M1927.26 1742.89C1927.26 1750.15 1921.38 1756.04 1914.11 1756.04C1906.85 1756.04 1900.96 1750.15 1900.96 1742.89C1900.96 1735.62 1906.85 1729.74 1914.11 1729.74C1921.38 1729.74 1927.26 1735.62 1927.26 1742.89Z" fill="#4F279B" fill-opacity="0.05" stroke="black"/>
<path opacity="0.35" d="M2136.87 1742.89C2136.87 1750.15 2130.99 1756.04 2123.72 1756.04C2116.46 1756.04 2110.57 1750.15 2110.57 1742.89C2110.57 1735.62 2116.46 1729.74 2123.72 1729.74C2130.99 1729.74 2136.87 1735.62 2136.87 1742.89Z" fill="#4F279B" fill-opacity="0.05" stroke="black"/>
<path opacity="0.35" d="M2346.48 1742.89C2346.48 1750.15 2340.6 1756.04 2333.33 1756.04C2326.07 1756.04 2320.18 1750.15 2320.18 1742.89C2320.18 1735.62 2326.07 1729.74 2333.33 1729.74C2340.6 1729.74 2346.48 1735.62 2346.48 1742.89Z" fill="#4F279B" fill-opacity="0.05" stroke="black"/>
<path opacity="0.35" d="M2556.1 1742.89C2556.1 1750.15 2550.21 1756.04 2542.95 1756.04C2535.68 1756.04 2529.79 1750.15 2529.79 1742.89C2529.79 1735.62 2535.68 1729.74 2542.95 1729.74C2550.21 1729.74 2556.1 1735.62 2556.1 1742.89Z" fill="#4F279B" fill-opacity="0.05" stroke="black"/>
<path opacity="0.35" d="M2765.71 1742.89C2765.71 1750.15 2759.82 1756.04 2752.56 1756.04C2745.29 1756.04 2739.4 1750.15 2739.4 1742.89C2739.4 1735.62 2745.29 1729.74 2752.56 1729.74C2759.82 1729.74 2765.71 1735.62 2765.71 1742.89Z" fill="#4F279B" fill-opacity="0.05" stroke="black"/>
<path opacity="0.35" d="M2975.32 1742.89C2975.32 1750.15 2969.43 1756.04 2962.17 1756.04C2954.9 1756.04 2949.02 1750.15 2949.02 1742.89C2949.02 1735.62 2954.9 1729.74 2962.17 1729.74C2969.43 1729.74 2975.32 1735.62 2975.32 1742.89Z" fill="#4F279B" fill-opacity="0.05" stroke="black"/>
<path opacity="0.35" d="M3184.93 1742.89C3184.93 1750.15 3179.04 1756.04 3171.78 1756.04C3164.51 1756.04 3158.62 1750.15 3158.62 1742.89C3158.62 1735.62 3164.51 1729.74 3171.78 1729.74C3179.04 1729.74 3184.93 1735.62 3184.93 1742.89Z" fill="#4F279B" fill-opacity="0.05" stroke="black"/>
<path d="M3394.54 1742.89C3394.54 1750.15 3388.65 1756.04 3381.39 1756.04C3374.12 1756.04 3368.23 1750.15 3368.23 1742.89C3368.23 1735.62 3374.12 1729.74 3381.39 1729.74C3388.65 1729.74 3394.54 1735.62 3394.54 1742.89Z" fill="#4F279B" fill-opacity="0.05" stroke="black"/>
<path opacity="0.35" d="M3604.15 1742.89C3604.15 1750.15 3598.26 1756.04 3591 1756.04C3583.74 1756.04 3577.85 1750.15 3577.85 1742.89C3577.85 1735.62 3583.74 1729.74 3591 1729.74C3598.26 1729.74 3604.15 1735.62 3604.15 1742.89Z" fill="#4F279B" fill-opacity="0.05" stroke="black"/>
<path opacity="0.35" d="M40.7616 1952.5C40.7616 1959.76 34.8731 1965.65 27.6093 1965.65C20.3455 1965.65 14.457 1959.76 14.457 1952.5C14.457 1945.23 20.3455 1939.35 27.6093 1939.35C34.8731 1939.35 40.7616 1945.23 40.7616 1952.5Z" fill="#4F279B" fill-opacity="0.05" stroke="black"/>
<path opacity="0.35" d="M250.375 1952.5C250.375 1959.76 244.486 1965.65 237.223 1965.65C229.959 1965.65 224.07 1959.76 224.07 1952.5C224.07 1945.23 229.959 1939.35 237.223 1939.35C244.486 1939.35 250.375 1945.23 250.375 1952.5Z" fill="#4F279B" fill-opacity="0.05" stroke="black"/>
<path opacity="0.35" d="M459.986 1952.5C459.986 1959.76 454.098 1965.65 446.834 1965.65C439.57 1965.65 433.682 1959.76 433.682 1952.5C433.682 1945.23 439.57 1939.35 446.834 1939.35C454.098 1939.35 459.986 1945.23 459.986 1952.5Z" fill="#4F279B" fill-opacity="0.05" stroke="black"/>
<path opacity="0.35" d="M669.598 1952.5C669.598 1959.76 663.709 1965.65 656.445 1965.65C649.181 1965.65 643.293 1959.76 643.293 1952.5C643.293 1945.23 649.181 1939.35 656.445 1939.35C663.709 1939.35 669.598 1945.23 669.598 1952.5Z" fill="#4F279B" fill-opacity="0.05" stroke="black"/>
<path opacity="0.35" d="M879.209 1952.5C879.209 1959.76 873.32 1965.65 866.057 1965.65C858.793 1965.65 852.904 1959.76 852.904 1952.5C852.904 1945.23 858.793 1939.35 866.057 1939.35C873.32 1939.35 879.209 1945.23 879.209 1952.5Z" fill="#4F279B" fill-opacity="0.05" stroke="black"/>
<path d="M1088.82 1952.5C1088.82 1959.76 1082.93 1965.65 1075.67 1965.65C1068.4 1965.65 1062.52 1959.76 1062.52 1952.5C1062.52 1945.23 1068.4 1939.35 1075.67 1939.35C1082.93 1939.35 1088.82 1945.23 1088.82 1952.5Z" fill="#4F279B" fill-opacity="0.05" stroke="black"/>
<path opacity="0.35" d="M1298.43 1952.5C1298.43 1959.76 1292.54 1965.65 1285.28 1965.65C1278.02 1965.65 1272.13 1959.76 1272.13 1952.5C1272.13 1945.23 1278.02 1939.35 1285.28 1939.35C1292.54 1939.35 1298.43 1945.23 1298.43 1952.5Z" fill="#4F279B" fill-opacity="0.05" stroke="black"/>
<path opacity="0.35" d="M1508.04 1952.5C1508.04 1959.76 1502.15 1965.65 1494.89 1965.65C1487.62 1965.65 1481.74 1959.76 1481.74 1952.5C1481.74 1945.23 1487.62 1939.35 1494.89 1939.35C1502.15 1939.35 1508.04 1945.23 1508.04 1952.5Z" fill="#4F279B" fill-opacity="0.05" stroke="black"/>
<path opacity="0.35" d="M1717.65 1952.5C1717.65 1959.76 1711.76 1965.65 1704.5 1965.65C1697.24 1965.65 1691.35 1959.76 1691.35 1952.5C1691.35 1945.23 1697.24 1939.35 1704.5 1939.35C1711.76 1939.35 1717.65 1945.23 1717.65 1952.5Z" fill="#4F279B" fill-opacity="0.05" stroke="black"/>
<path opacity="0.35" d="M1927.26 1952.5C1927.26 1959.76 1921.38 1965.65 1914.11 1965.65C1906.85 1965.65 1900.96 1959.76 1900.96 1952.5C1900.96 1945.23 1906.85 1939.35 1914.11 1939.35C1921.38 1939.35 1927.26 1945.23 1927.26 1952.5Z" fill="#4F279B" fill-opacity="0.05" stroke="black"/>
<path d="M2136.87 1952.5C2136.87 1959.76 2130.99 1965.65 2123.72 1965.65C2116.46 1965.65 2110.57 1959.76 2110.57 1952.5C2110.57 1945.23 2116.46 1939.35 2123.72 1939.35C2130.99 1939.35 2136.87 1945.23 2136.87 1952.5Z" fill="#4F279B" fill-opacity="0.05" stroke="black"/>
<path d="M2346.48 1952.5C2346.48 1959.76 2340.6 1965.65 2333.33 1965.65C2326.07 1965.65 2320.18 1959.76 2320.18 1952.5C2320.18 1945.23 2326.07 1939.35 2333.33 1939.35C2340.6 1939.35 2346.48 1945.23 2346.48 1952.5Z" fill="#4F279B" fill-opacity="0.05" stroke="black"/>
<path opacity="0.35" d="M2556.1 1952.5C2556.1 1959.76 2550.21 1965.65 2542.95 1965.65C2535.68 1965.65 2529.79 1959.76 2529.79 1952.5C2529.79 1945.23 2535.68 1939.35 2542.95 1939.35C2550.21 1939.35 2556.1 1945.23 2556.1 1952.5Z" fill="#4F279B" fill-opacity="0.05" stroke="black"/>
<path opacity="0.35" d="M2765.71 1952.5C2765.71 1959.76 2759.82 1965.65 2752.56 1965.65C2745.29 1965.65 2739.4 1959.76 2739.4 1952.5C2739.4 1945.23 2745.29 1939.35 2752.56 1939.35C2759.82 1939.35 2765.71 1945.23 2765.71 1952.5Z" fill="#4F279B" fill-opacity="0.05" stroke="black"/>
<path opacity="0.35" d="M2975.32 1952.5C2975.32 1959.76 2969.43 1965.65 2962.17 1965.65C2954.9 1965.65 2949.02 1959.76 2949.02 1952.5C2949.02 1945.23 2954.9 1939.35 2962.17 1939.35C2969.43 1939.35 2975.32 1945.23 2975.32 1952.5Z" fill="#4F279B" fill-opacity="0.05" stroke="black"/>
<path d="M3184.93 1952.5C3184.93 1959.76 3179.04 1965.65 3171.78 1965.65C3164.51 1965.65 3158.62 1959.76 3158.62 1952.5C3158.62 1945.23 3164.51 1939.35 3171.78 1939.35C3179.04 1939.35 3184.93 1945.23 3184.93 1952.5Z" fill="#4F279B" fill-opacity="0.05" stroke="black"/>
<path opacity="0.35" d="M3394.54 1952.5C3394.54 1959.76 3388.65 1965.65 3381.39 1965.65C3374.12 1965.65 3368.23 1959.76 3368.23 1952.5C3368.23 1945.23 3374.12 1939.35 3381.39 1939.35C3388.65 1939.35 3394.54 1945.23 3394.54 1952.5Z" fill="#4F279B" fill-opacity="0.05" stroke="black"/>
<path opacity="0.35" d="M3604.15 1952.5C3604.15 1959.76 3598.26 1965.65 3591 1965.65C3583.74 1965.65 3577.85 1959.76 3577.85 1952.5C3577.85 1945.23 3583.74 1939.35 3591 1939.35C3598.26 1939.35 3604.15 1945.23 3604.15 1952.5Z" fill="#4F279B" fill-opacity="0.05" stroke="black"/>
<path opacity="0.35" d="M40.7616 2162.11C40.7616 2169.37 34.8731 2175.26 27.6093 2175.26C20.3455 2175.26 14.457 2169.37 14.457 2162.11C14.457 2154.85 20.3455 2148.96 27.6093 2148.96C34.8731 2148.96 40.7616 2154.85 40.7616 2162.11Z" fill="#4F279B" fill-opacity="0.05" stroke="black"/>
<path d="M250.375 2162.11C250.375 2169.37 244.486 2175.26 237.223 2175.26C229.959 2175.26 224.07 2169.37 224.07 2162.11C224.07 2154.85 229.959 2148.96 237.223 2148.96C244.486 2148.96 250.375 2154.85 250.375 2162.11Z" fill="#4F279B" fill-opacity="0.05" stroke="black"/>
<path d="M459.986 2162.11C459.986 2169.37 454.098 2175.26 446.834 2175.26C439.57 2175.26 433.682 2169.37 433.682 2162.11C433.682 2154.85 439.57 2148.96 446.834 2148.96C454.098 2148.96 459.986 2154.85 459.986 2162.11Z" fill="#4F279B" fill-opacity="0.05" stroke="black"/>
<path opacity="0.35" d="M669.598 2162.11C669.598 2169.37 663.709 2175.26 656.445 2175.26C649.181 2175.26 643.293 2169.37 643.293 2162.11C643.293 2154.85 649.181 2148.96 656.445 2148.96C663.709 2148.96 669.598 2154.85 669.598 2162.11Z" fill="#4F279B" fill-opacity="0.05" stroke="black"/>
<path opacity="0.35" d="M879.209 2162.11C879.209 2169.37 873.32 2175.26 866.057 2175.26C858.793 2175.26 852.904 2169.37 852.904 2162.11C852.904 2154.85 858.793 2148.96 866.057 2148.96C873.32 2148.96 879.209 2154.85 879.209 2162.11Z" fill="#4F279B" fill-opacity="0.05" stroke="black"/>
<path opacity="0.35" d="M1088.82 2162.11C1088.82 2169.37 1082.93 2175.26 1075.67 2175.26C1068.4 2175.26 1062.52 2169.37 1062.52 2162.11C1062.52 2154.85 1068.4 2148.96 1075.67 2148.96C1082.93 2148.96 1088.82 2154.85 1088.82 2162.11Z" fill="#4F279B" fill-opacity="0.05" stroke="black"/>
<path opacity="0.35" d="M1298.43 2162.11C1298.43 2169.37 1292.54 2175.26 1285.28 2175.26C1278.02 2175.26 1272.13 2169.37 1272.13 2162.11C1272.13 2154.85 1278.02 2148.96 1285.28 2148.96C1292.54 2148.96 1298.43 2154.85 1298.43 2162.11Z" fill="#4F279B" fill-opacity="0.05" stroke="black"/>
<path opacity="0.35" d="M1508.04 2162.11C1508.04 2169.37 1502.15 2175.26 1494.89 2175.26C1487.62 2175.26 1481.74 2169.37 1481.74 2162.11C1481.74 2154.85 1487.62 2148.96 1494.89 2148.96C1502.15 2148.96 1508.04 2154.85 1508.04 2162.11Z" fill="#4F279B" fill-opacity="0.05" stroke="black"/>
<path d="M1717.65 2162.11C1717.65 2169.37 1711.76 2175.26 1704.5 2175.26C1697.24 2175.26 1691.35 2169.37 1691.35 2162.11C1691.35 2154.85 1697.24 2148.96 1704.5 2148.96C1711.76 2148.96 1717.65 2154.85 1717.65 2162.11Z" fill="#4F279B" fill-opacity="0.05" stroke="black"/>
<path opacity="0.35" d="M1927.26 2162.11C1927.26 2169.37 1921.38 2175.26 1914.11 2175.26C1906.85 2175.26 1900.96 2169.37 1900.96 2162.11C1900.96 2154.85 1906.85 2148.96 1914.11 2148.96C1921.38 2148.96 1927.26 2154.85 1927.26 2162.11Z" fill="#4F279B" fill-opacity="0.05" stroke="black"/>
<path opacity="0.35" d="M2136.87 2162.11C2136.87 2169.37 2130.99 2175.26 2123.72 2175.26C2116.46 2175.26 2110.57 2169.37 2110.57 2162.11C2110.57 2154.85 2116.46 2148.96 2123.72 2148.96C2130.99 2148.96 2136.87 2154.85 2136.87 2162.11Z" fill="#4F279B" fill-opacity="0.05" stroke="black"/>
<path opacity="0.35" d="M2346.48 2162.11C2346.48 2169.37 2340.6 2175.26 2333.33 2175.26C2326.07 2175.26 2320.18 2169.37 2320.18 2162.11C2320.18 2154.85 2326.07 2148.96 2333.33 2148.96C2340.6 2148.96 2346.48 2154.85 2346.48 2162.11Z" fill="#4F279B" fill-opacity="0.05" stroke="black"/>
<path opacity="0.35" d="M2556.1 2162.11C2556.1 2169.37 2550.21 2175.26 2542.95 2175.26C2535.68 2175.26 2529.79 2169.37 2529.79 2162.11C2529.79 2154.85 2535.68 2148.96 2542.95 2148.96C2550.21 2148.96 2556.1 2154.85 2556.1 2162.11Z" fill="#4F279B" fill-opacity="0.05" stroke="black"/>
<path d="M2765.71 2162.11C2765.71 2169.37 2759.82 2175.26 2752.56 2175.26C2745.29 2175.26 2739.4 2169.37 2739.4 2162.11C2739.4 2154.85 2745.29 2148.96 2752.56 2148.96C2759.82 2148.96 2765.71 2154.85 2765.71 2162.11Z" fill="#4F279B" fill-opacity="0.05" stroke="black"/>
<path opacity="0.35" d="M2975.32 2162.11C2975.32 2169.37 2969.43 2175.26 2962.17 2175.26C2954.9 2175.26 2949.02 2169.37 2949.02 2162.11C2949.02 2154.85 2954.9 2148.96 2962.17 2148.96C2969.43 2148.96 2975.32 2154.85 2975.32 2162.11Z" fill="#4F279B" fill-opacity="0.05" stroke="black"/>
<path opacity="0.35" d="M3184.93 2162.11C3184.93 2169.37 3179.04 2175.26 3171.78 2175.26C3164.51 2175.26 3158.62 2169.37 3158.62 2162.11C3158.62 2154.85 3164.51 2148.96 3171.78 2148.96C3179.04 2148.96 3184.93 2154.85 3184.93 2162.11Z" fill="#4F279B" fill-opacity="0.05" stroke="black"/>
<path opacity="0.35" d="M3394.54 2162.11C3394.54 2169.37 3388.65 2175.26 3381.39 2175.26C3374.12 2175.26 3368.23 2169.37 3368.23 2162.11C3368.23 2154.85 3374.12 2148.96 3381.39 2148.96C3388.65 2148.96 3394.54 2154.85 3394.54 2162.11Z" fill="#4F279B" fill-opacity="0.05" stroke="black"/>
<path opacity="0.35" d="M3604.15 2162.11C3604.15 2169.37 3598.26 2175.26 3591 2175.26C3583.74 2175.26 3577.85 2169.37 3577.85 2162.11C3577.85 2154.85 3583.74 2148.96 3591 2148.96C3598.26 2148.96 3604.15 2154.85 3604.15 2162.11Z" fill="#4F279B" fill-opacity="0.05" stroke="black"/>
<path d="M40.7616 2371.72C40.7616 2378.99 34.8731 2384.87 27.6093 2384.87C20.3455 2384.87 14.457 2378.99 14.457 2371.72C14.457 2364.46 20.3455 2358.57 27.6093 2358.57C34.8731 2358.57 40.7616 2364.46 40.7616 2371.72Z" fill="#4F279B" fill-opacity="0.05" stroke="black"/>
<path opacity="0.35" d="M250.375 2371.72C250.375 2378.99 244.486 2384.87 237.223 2384.87C229.959 2384.87 224.07 2378.99 224.07 2371.72C224.07 2364.46 229.959 2358.57 237.223 2358.57C244.486 2358.57 250.375 2364.46 250.375 2371.72Z" fill="#4F279B" fill-opacity="0.05" stroke="black"/>
<path opacity="0.35" d="M459.986 2371.72C459.986 2378.99 454.098 2384.87 446.834 2384.87C439.57 2384.87 433.682 2378.99 433.682 2371.72C433.682 2364.46 439.57 2358.57 446.834 2358.57C454.098 2358.57 459.986 2364.46 459.986 2371.72Z" fill="#4F279B" fill-opacity="0.05" stroke="black"/>
<path opacity="0.35" d="M669.598 2371.72C669.598 2378.99 663.709 2384.87 656.445 2384.87C649.181 2384.87 643.293 2378.99 643.293 2371.72C643.293 2364.46 649.181 2358.57 656.445 2358.57C663.709 2358.57 669.598 2364.46 669.598 2371.72Z" fill="#4F279B" fill-opacity="0.05" stroke="black"/>
<path d="M879.209 2371.72C879.209 2378.99 873.32 2384.87 866.057 2384.87C858.793 2384.87 852.904 2378.99 852.904 2371.72C852.904 2364.46 858.793 2358.57 866.057 2358.57C873.32 2358.57 879.209 2364.46 879.209 2371.72Z" fill="#4F279B" fill-opacity="0.05" stroke="black"/>
<path opacity="0.35" d="M1088.82 2371.72C1088.82 2378.99 1082.93 2384.87 1075.67 2384.87C1068.4 2384.87 1062.52 2378.99 1062.52 2371.72C1062.52 2364.46 1068.4 2358.57 1075.67 2358.57C1082.93 2358.57 1088.82 2364.46 1088.82 2371.72Z" fill="#4F279B" fill-opacity="0.05" stroke="black"/>
<path d="M1298.43 2371.72C1298.43 2378.99 1292.54 2384.87 1285.28 2384.87C1278.02 2384.87 1272.13 2378.99 1272.13 2371.72C1272.13 2364.46 1278.02 2358.57 1285.28 2358.57C1292.54 2358.57 1298.43 2364.46 1298.43 2371.72Z" fill="#4F279B" fill-opacity="0.05" stroke="black"/>
<path d="M1508.04 2371.72C1508.04 2378.99 1502.15 2384.87 1494.89 2384.87C1487.62 2384.87 1481.74 2378.99 1481.74 2371.72C1481.74 2364.46 1487.62 2358.57 1494.89 2358.57C1502.15 2358.57 1508.04 2364.46 1508.04 2371.72Z" fill="#4F279B" fill-opacity="0.05" stroke="black"/>
<path opacity="0.35" d="M1717.65 2371.72C1717.65 2378.99 1711.76 2384.87 1704.5 2384.87C1697.24 2384.87 1691.35 2378.99 1691.35 2371.72C1691.35 2364.46 1697.24 2358.57 1704.5 2358.57C1711.76 2358.57 1717.65 2364.46 1717.65 2371.72Z" fill="#4F279B" fill-opacity="0.05" stroke="black"/>
<path opacity="0.35" d="M1927.26 2371.72C1927.26 2378.99 1921.38 2384.87 1914.11 2384.87C1906.85 2384.87 1900.96 2378.99 1900.96 2371.72C1900.96 2364.46 1906.85 2358.57 1914.11 2358.57C1921.38 2358.57 1927.26 2364.46 1927.26 2371.72Z" fill="#4F279B" fill-opacity="0.05" stroke="black"/>
<path opacity="0.35" d="M2136.87 2371.72C2136.87 2378.99 2130.99 2384.87 2123.72 2384.87C2116.46 2384.87 2110.57 2378.99 2110.57 2371.72C2110.57 2364.46 2116.46 2358.57 2123.72 2358.57C2130.99 2358.57 2136.87 2364.46 2136.87 2371.72Z" fill="#4F279B" fill-opacity="0.05" stroke="black"/>
<path opacity="0.35" d="M2346.48 2371.72C2346.48 2378.99 2340.6 2384.87 2333.33 2384.87C2326.07 2384.87 2320.18 2378.99 2320.18 2371.72C2320.18 2364.46 2326.07 2358.57 2333.33 2358.57C2340.6 2358.57 2346.48 2364.46 2346.48 2371.72Z" fill="#4F279B" fill-opacity="0.05" stroke="black"/>
<path d="M2556.1 2371.72C2556.1 2378.99 2550.21 2384.87 2542.95 2384.87C2535.68 2384.87 2529.79 2378.99 2529.79 2371.72C2529.79 2364.46 2535.68 2358.57 2542.95 2358.57C2550.21 2358.57 2556.1 2364.46 2556.1 2371.72Z" fill="#4F279B" fill-opacity="0.05" stroke="black"/>
<path d="M2765.71 2371.72C2765.71 2378.99 2759.82 2384.87 2752.56 2384.87C2745.29 2384.87 2739.4 2378.99 2739.4 2371.72C2739.4 2364.46 2745.29 2358.57 2752.56 2358.57C2759.82 2358.57 2765.71 2364.46 2765.71 2371.72Z" fill="#4F279B" fill-opacity="0.05" stroke="black"/>
<path d="M2975.32 2371.72C2975.32 2378.99 2969.43 2384.87 2962.17 2384.87C2954.9 2384.87 2949.02 2378.99 2949.02 2371.72C2949.02 2364.46 2954.9 2358.57 2962.17 2358.57C2969.43 2358.57 2975.32 2364.46 2975.32 2371.72Z" fill="#4F279B" fill-opacity="0.05" stroke="black"/>
<path opacity="0.35" d="M3184.93 2371.72C3184.93 2378.99 3179.04 2384.87 3171.78 2384.87C3164.51 2384.87 3158.62 2378.99 3158.62 2371.72C3158.62 2364.46 3164.51 2358.57 3171.78 2358.57C3179.04 2358.57 3184.93 2364.46 3184.93 2371.72Z" fill="#4F279B" fill-opacity="0.05" stroke="black"/>
<path opacity="0.35" d="M3394.54 2371.72C3394.54 2378.99 3388.65 2384.87 3381.39 2384.87C3374.12 2384.87 3368.23 2378.99 3368.23 2371.72C3368.23 2364.46 3374.12 2358.57 3381.39 2358.57C3388.65 2358.57 3394.54 2364.46 3394.54 2371.72Z" fill="#4F279B" fill-opacity="0.05" stroke="black"/>
<path opacity="0.35" d="M3604.15 2371.72C3604.15 2378.99 3598.26 2384.87 3591 2384.87C3583.74 2384.87 3577.85 2378.99 3577.85 2371.72C3577.85 2364.46 3583.74 2358.57 3591 2358.57C3598.26 2358.57 3604.15 2364.46 3604.15 2371.72Z" fill="#4F279B" fill-opacity="0.05" stroke="black"/>
<path d="M40.7616 2581.33C40.7616 2588.6 34.8731 2594.48 27.6093 2594.48C20.3455 2594.48 14.457 2588.6 14.457 2581.33C14.457 2574.07 20.3455 2568.18 27.6093 2568.18C34.8731 2568.18 40.7616 2574.07 40.7616 2581.33Z" fill="#4F279B" fill-opacity="0.05" stroke="black"/>
<path opacity="0.35" d="M250.375 2581.33C250.375 2588.6 244.486 2594.48 237.223 2594.48C229.959 2594.48 224.07 2588.6 224.07 2581.33C224.07 2574.07 229.959 2568.18 237.223 2568.18C244.486 2568.18 250.375 2574.07 250.375 2581.33Z" fill="#4F279B" fill-opacity="0.05" stroke="black"/>
<path opacity="0.35" d="M459.986 2581.33C459.986 2588.6 454.098 2594.48 446.834 2594.48C439.57 2594.48 433.682 2588.6 433.682 2581.33C433.682 2574.07 439.57 2568.18 446.834 2568.18C454.098 2568.18 459.986 2574.07 459.986 2581.33Z" fill="#4F279B" fill-opacity="0.05" stroke="black"/>
<path d="M669.598 2581.33C669.598 2588.6 663.709 2594.48 656.445 2594.48C649.181 2594.48 643.293 2588.6 643.293 2581.33C643.293 2574.07 649.181 2568.18 656.445 2568.18C663.709 2568.18 669.598 2574.07 669.598 2581.33Z" fill="#4F279B" fill-opacity="0.05" stroke="black"/>
<path opacity="0.35" d="M879.209 2581.33C879.209 2588.6 873.32 2594.48 866.057 2594.48C858.793 2594.48 852.904 2588.6 852.904 2581.33C852.904 2574.07 858.793 2568.18 866.057 2568.18C873.32 2568.18 879.209 2574.07 879.209 2581.33Z" fill="#4F279B" fill-opacity="0.05" stroke="black"/>
<path opacity="0.35" d="M1088.82 2581.33C1088.82 2588.6 1082.93 2594.48 1075.67 2594.48C1068.4 2594.48 1062.52 2588.6 1062.52 2581.33C1062.52 2574.07 1068.4 2568.18 1075.67 2568.18C1082.93 2568.18 1088.82 2574.07 1088.82 2581.33Z" fill="#4F279B" fill-opacity="0.05" stroke="black"/>
<path opacity="0.35" d="M1298.43 2581.33C1298.43 2588.6 1292.54 2594.48 1285.28 2594.48C1278.02 2594.48 1272.13 2588.6 1272.13 2581.33C1272.13 2574.07 1278.02 2568.18 1285.28 2568.18C1292.54 2568.18 1298.43 2574.07 1298.43 2581.33Z" fill="#4F279B" fill-opacity="0.05" stroke="black"/>
<path opacity="0.35" d="M1508.04 2581.33C1508.04 2588.6 1502.15 2594.48 1494.89 2594.48C1487.62 2594.48 1481.74 2588.6 1481.74 2581.33C1481.74 2574.07 1487.62 2568.18 1494.89 2568.18C1502.15 2568.18 1508.04 2574.07 1508.04 2581.33Z" fill="#4F279B" fill-opacity="0.05" stroke="black"/>
<path opacity="0.35" d="M1717.65 2581.33C1717.65 2588.6 1711.76 2594.48 1704.5 2594.48C1697.24 2594.48 1691.35 2588.6 1691.35 2581.33C1691.35 2574.07 1697.24 2568.18 1704.5 2568.18C1711.76 2568.18 1717.65 2574.07 1717.65 2581.33Z" fill="#4F279B" fill-opacity="0.05" stroke="black"/>
<path opacity="0.35" d="M1927.26 2581.33C1927.26 2588.6 1921.38 2594.48 1914.11 2594.48C1906.85 2594.48 1900.96 2588.6 1900.96 2581.33C1900.96 2574.07 1906.85 2568.18 1914.11 2568.18C1921.38 2568.18 1927.26 2574.07 1927.26 2581.33Z" fill="#4F279B" fill-opacity="0.05" stroke="black"/>
<path opacity="0.35" d="M2136.87 2581.33C2136.87 2588.6 2130.99 2594.48 2123.72 2594.48C2116.46 2594.48 2110.57 2588.6 2110.57 2581.33C2110.57 2574.07 2116.46 2568.18 2123.72 2568.18C2130.99 2568.18 2136.87 2574.07 2136.87 2581.33Z" fill="#4F279B" fill-opacity="0.05" stroke="black"/>
<path opacity="0.35" d="M2346.48 2581.33C2346.48 2588.6 2340.6 2594.48 2333.33 2594.48C2326.07 2594.48 2320.18 2588.6 2320.18 2581.33C2320.18 2574.07 2326.07 2568.18 2333.33 2568.18C2340.6 2568.18 2346.48 2574.07 2346.48 2581.33Z" fill="#4F279B" fill-opacity="0.05" stroke="black"/>
<path opacity="0.35" d="M2556.1 2581.33C2556.1 2588.6 2550.21 2594.48 2542.95 2594.48C2535.68 2594.48 2529.79 2588.6 2529.79 2581.33C2529.79 2574.07 2535.68 2568.18 2542.95 2568.18C2550.21 2568.18 2556.1 2574.07 2556.1 2581.33Z" fill="#4F279B" fill-opacity="0.05" stroke="black"/>
<path opacity="0.35" d="M2765.71 2581.33C2765.71 2588.6 2759.82 2594.48 2752.56 2594.48C2745.29 2594.48 2739.4 2588.6 2739.4 2581.33C2739.4 2574.07 2745.29 2568.18 2752.56 2568.18C2759.82 2568.18 2765.71 2574.07 2765.71 2581.33Z" fill="#4F279B" fill-opacity="0.05" stroke="black"/>
<path opacity="0.35" d="M2975.32 2581.33C2975.32 2588.6 2969.43 2594.48 2962.17 2594.48C2954.9 2594.48 2949.02 2588.6 2949.02 2581.33C2949.02 2574.07 2954.9 2568.18 2962.17 2568.18C2969.43 2568.18 2975.32 2574.07 2975.32 2581.33Z" fill="#4F279B" fill-opacity="0.05" stroke="black"/>
<path opacity="0.35" d="M3184.93 2581.33C3184.93 2588.6 3179.04 2594.48 3171.78 2594.48C3164.51 2594.48 3158.62 2588.6 3158.62 2581.33C3158.62 2574.07 3164.51 2568.18 3171.78 2568.18C3179.04 2568.18 3184.93 2574.07 3184.93 2581.33Z" fill="#4F279B" fill-opacity="0.05" stroke="black"/>
<path opacity="0.35" d="M3394.54 2581.33C3394.54 2588.6 3388.65 2594.48 3381.39 2594.48C3374.12 2594.48 3368.23 2588.6 3368.23 2581.33C3368.23 2574.07 3374.12 2568.18 3381.39 2568.18C3388.65 2568.18 3394.54 2574.07 3394.54 2581.33Z" fill="#4F279B" fill-opacity="0.05" stroke="black"/>
<path opacity="0.35" d="M3604.15 2581.33C3604.15 2588.6 3598.26 2594.48 3591 2594.48C3583.74 2594.48 3577.85 2588.6 3577.85 2581.33C3577.85 2574.07 3583.74 2568.18 3591 2568.18C3598.26 2568.18 3604.15 2574.07 3604.15 2581.33Z" fill="#4F279B" fill-opacity="0.05" stroke="black"/>
<path d="M40.7616 2790.94C40.7616 2798.21 34.8731 2804.1 27.6093 2804.1C20.3455 2804.1 14.457 2798.21 14.457 2790.94C14.457 2783.68 20.3455 2777.79 27.6093 2777.79C34.8731 2777.79 40.7616 2783.68 40.7616 2790.94Z" fill="#4F279B" fill-opacity="0.05" stroke="black"/>
<path opacity="0.35" d="M250.375 2790.94C250.375 2798.21 244.486 2804.1 237.223 2804.1C229.959 2804.1 224.07 2798.21 224.07 2790.94C224.07 2783.68 229.959 2777.79 237.223 2777.79C244.486 2777.79 250.375 2783.68 250.375 2790.94Z" fill="#4F279B" fill-opacity="0.05" stroke="black"/>
<path opacity="0.35" d="M459.986 2790.94C459.986 2798.21 454.098 2804.1 446.834 2804.1C439.57 2804.1 433.682 2798.21 433.682 2790.94C433.682 2783.68 439.57 2777.79 446.834 2777.79C454.098 2777.79 459.986 2783.68 459.986 2790.94Z" fill="#4F279B" fill-opacity="0.05" stroke="black"/>
<path opacity="0.35" d="M669.598 2790.94C669.598 2798.21 663.709 2804.1 656.445 2804.1C649.181 2804.1 643.293 2798.21 643.293 2790.94C643.293 2783.68 649.181 2777.79 656.445 2777.79C663.709 2777.79 669.598 2783.68 669.598 2790.94Z" fill="#4F279B" fill-opacity="0.05" stroke="black"/>
<path opacity="0.35" d="M879.209 2790.94C879.209 2798.21 873.32 2804.1 866.057 2804.1C858.793 2804.1 852.904 2798.21 852.904 2790.94C852.904 2783.68 858.793 2777.79 866.057 2777.79C873.32 2777.79 879.209 2783.68 879.209 2790.94Z" fill="#4F279B" fill-opacity="0.05" stroke="black"/>
<path d="M1088.82 2790.94C1088.82 2798.21 1082.93 2804.1 1075.67 2804.1C1068.4 2804.1 1062.52 2798.21 1062.52 2790.94C1062.52 2783.68 1068.4 2777.79 1075.67 2777.79C1082.93 2777.79 1088.82 2783.68 1088.82 2790.94Z" fill="#4F279B" fill-opacity="0.05" stroke="black"/>
<path opacity="0.35" d="M1298.43 2790.94C1298.43 2798.21 1292.54 2804.1 1285.28 2804.1C1278.02 2804.1 1272.13 2798.21 1272.13 2790.94C1272.13 2783.68 1278.02 2777.79 1285.28 2777.79C1292.54 2777.79 1298.43 2783.68 1298.43 2790.94Z" fill="#4F279B" fill-opacity="0.05" stroke="black"/>
<path opacity="0.35" d="M1508.04 2790.94C1508.04 2798.21 1502.15 2804.1 1494.89 2804.1C1487.62 2804.1 1481.74 2798.21 1481.74 2790.94C1481.74 2783.68 1487.62 2777.79 1494.89 2777.79C1502.15 2777.79 1508.04 2783.68 1508.04 2790.94Z" fill="#4F279B" fill-opacity="0.05" stroke="black"/>
<path opacity="0.35" d="M1717.65 2790.94C1717.65 2798.21 1711.76 2804.1 1704.5 2804.1C1697.24 2804.1 1691.35 2798.21 1691.35 2790.94C1691.35 2783.68 1697.24 2777.79 1704.5 2777.79C1711.76 2777.79 1717.65 2783.68 1717.65 2790.94Z" fill="#4F279B" fill-opacity="0.05" stroke="black"/>
<path opacity="0.35" d="M1927.26 2790.94C1927.26 2798.21 1921.38 2804.1 1914.11 2804.1C1906.85 2804.1 1900.96 2798.21 1900.96 2790.94C1900.96 2783.68 1906.85 2777.79 1914.11 2777.79C1921.38 2777.79 1927.26 2783.68 1927.26 2790.94Z" fill="#4F279B" fill-opacity="0.05" stroke="black"/>
<path opacity="0.35" d="M2136.87 2790.94C2136.87 2798.21 2130.99 2804.1 2123.72 2804.1C2116.46 2804.1 2110.57 2798.21 2110.57 2790.94C2110.57 2783.68 2116.46 2777.79 2123.72 2777.79C2130.99 2777.79 2136.87 2783.68 2136.87 2790.94Z" fill="#4F279B" fill-opacity="0.05" stroke="black"/>
<path opacity="0.35" d="M2346.48 2790.94C2346.48 2798.21 2340.6 2804.1 2333.33 2804.1C2326.07 2804.1 2320.18 2798.21 2320.18 2790.94C2320.18 2783.68 2326.07 2777.79 2333.33 2777.79C2340.6 2777.79 2346.48 2783.68 2346.48 2790.94Z" fill="#4F279B" fill-opacity="0.05" stroke="black"/>
<path d="M2556.1 2790.94C2556.1 2798.21 2550.21 2804.1 2542.95 2804.1C2535.68 2804.1 2529.79 2798.21 2529.79 2790.94C2529.79 2783.68 2535.68 2777.79 2542.95 2777.79C2550.21 2777.79 2556.1 2783.68 2556.1 2790.94Z" fill="#4F279B" fill-opacity="0.05" stroke="black"/>
<path opacity="0.35" d="M2765.71 2790.94C2765.71 2798.21 2759.82 2804.1 2752.56 2804.1C2745.29 2804.1 2739.4 2798.21 2739.4 2790.94C2739.4 2783.68 2745.29 2777.79 2752.56 2777.79C2759.82 2777.79 2765.71 2783.68 2765.71 2790.94Z" fill="#4F279B" fill-opacity="0.05" stroke="black"/>
<path opacity="0.35" d="M2975.32 2790.94C2975.32 2798.21 2969.43 2804.1 2962.17 2804.1C2954.9 2804.1 2949.02 2798.21 2949.02 2790.94C2949.02 2783.68 2954.9 2777.79 2962.17 2777.79C2969.43 2777.79 2975.32 2783.68 2975.32 2790.94Z" fill="#4F279B" fill-opacity="0.05" stroke="black"/>
<path opacity="0.35" d="M3184.93 2790.94C3184.93 2798.21 3179.04 2804.1 3171.78 2804.1C3164.51 2804.1 3158.62 2798.21 3158.62 2790.94C3158.62 2783.68 3164.51 2777.79 3171.78 2777.79C3179.04 2777.79 3184.93 2783.68 3184.93 2790.94Z" fill="#4F279B" fill-opacity="0.05" stroke="black"/>
<path opacity="0.35" d="M3394.54 2790.94C3394.54 2798.21 3388.65 2804.1 3381.39 2804.1C3374.12 2804.1 3368.23 2798.21 3368.23 2790.94C3368.23 2783.68 3374.12 2777.79 3381.39 2777.79C3388.65 2777.79 3394.54 2783.68 3394.54 2790.94Z" fill="#4F279B" fill-opacity="0.05" stroke="black"/>
<path opacity="0.35" d="M3604.15 2790.94C3604.15 2798.21 3598.26 2804.1 3591 2804.1C3583.74 2804.1 3577.85 2798.21 3577.85 2790.94C3577.85 2783.68 3583.74 2777.79 3591 2777.79C3598.26 2777.79 3604.15 2783.68 3604.15 2790.94Z" fill="#4F279B" fill-opacity="0.05" stroke="black"/>
<path opacity="0.35" d="M40.7616 3000.55C40.7616 3007.82 34.8731 3013.71 27.6093 3013.71C20.3455 3013.71 14.457 3007.82 14.457 3000.55C14.457 2993.29 20.3455 2987.4 27.6093 2987.4C34.8731 2987.4 40.7616 2993.29 40.7616 3000.55Z" fill="#4F279B" fill-opacity="0.05" stroke="black"/>
<path opacity="0.35" d="M250.375 3000.55C250.375 3007.82 244.486 3013.71 237.223 3013.71C229.959 3013.71 224.07 3007.82 224.07 3000.55C224.07 2993.29 229.959 2987.4 237.223 2987.4C244.486 2987.4 250.375 2993.29 250.375 3000.55Z" fill="#4F279B" fill-opacity="0.05" stroke="black"/>
<path opacity="0.35" d="M459.986 3000.55C459.986 3007.82 454.098 3013.71 446.834 3013.71C439.57 3013.71 433.682 3007.82 433.682 3000.55C433.682 2993.29 439.57 2987.4 446.834 2987.4C454.098 2987.4 459.986 2993.29 459.986 3000.55Z" fill="#4F279B" fill-opacity="0.05" stroke="black"/>
<path opacity="0.35" d="M669.598 3000.55C669.598 3007.82 663.709 3013.71 656.445 3013.71C649.181 3013.71 643.293 3007.82 643.293 3000.55C643.293 2993.29 649.181 2987.4 656.445 2987.4C663.709 2987.4 669.598 2993.29 669.598 3000.55Z" fill="#4F279B" fill-opacity="0.05" stroke="black"/>
<path opacity="0.35" d="M879.209 3000.55C879.209 3007.82 873.32 3013.71 866.057 3013.71C858.793 3013.71 852.904 3007.82 852.904 3000.55C852.904 2993.29 858.793 2987.4 866.057 2987.4C873.32 2987.4 879.209 2993.29 879.209 3000.55Z" fill="#4F279B" fill-opacity="0.05" stroke="black"/>
<path opacity="0.35" d="M1088.82 3000.55C1088.82 3007.82 1082.93 3013.71 1075.67 3013.71C1068.4 3013.71 1062.52 3007.82 1062.52 3000.55C1062.52 2993.29 1068.4 2987.4 1075.67 2987.4C1082.93 2987.4 1088.82 2993.29 1088.82 3000.55Z" fill="#4F279B" fill-opacity="0.05" stroke="black"/>
<path opacity="0.35" d="M1298.43 3000.55C1298.43 3007.82 1292.54 3013.71 1285.28 3013.71C1278.02 3013.71 1272.13 3007.82 1272.13 3000.55C1272.13 2993.29 1278.02 2987.4 1285.28 2987.4C1292.54 2987.4 1298.43 2993.29 1298.43 3000.55Z" fill="#4F279B" fill-opacity="0.05" stroke="black"/>
<path opacity="0.35" d="M1508.04 3000.55C1508.04 3007.82 1502.15 3013.71 1494.89 3013.71C1487.62 3013.71 1481.74 3007.82 1481.74 3000.55C1481.74 2993.29 1487.62 2987.4 1494.89 2987.4C1502.15 2987.4 1508.04 2993.29 1508.04 3000.55Z" fill="#4F279B" fill-opacity="0.05" stroke="black"/>
<path d="M1717.65 3000.55C1717.65 3007.82 1711.76 3013.71 1704.5 3013.71C1697.24 3013.71 1691.35 3007.82 1691.35 3000.55C1691.35 2993.29 1697.24 2987.4 1704.5 2987.4C1711.76 2987.4 1717.65 2993.29 1717.65 3000.55Z" fill="#4F279B" fill-opacity="0.05" stroke="black"/>
<path opacity="0.35" d="M1927.26 3000.55C1927.26 3007.82 1921.38 3013.71 1914.11 3013.71C1906.85 3013.71 1900.96 3007.82 1900.96 3000.55C1900.96 2993.29 1906.85 2987.4 1914.11 2987.4C1921.38 2987.4 1927.26 2993.29 1927.26 3000.55Z" fill="#4F279B" fill-opacity="0.05" stroke="black"/>
<path opacity="0.35" d="M2136.87 3000.55C2136.87 3007.82 2130.99 3013.71 2123.72 3013.71C2116.46 3013.71 2110.57 3007.82 2110.57 3000.55C2110.57 2993.29 2116.46 2987.4 2123.72 2987.4C2130.99 2987.4 2136.87 2993.29 2136.87 3000.55Z" fill="#4F279B" fill-opacity="0.05" stroke="black"/>
<path opacity="0.35" d="M2346.48 3000.55C2346.48 3007.82 2340.6 3013.71 2333.33 3013.71C2326.07 3013.71 2320.18 3007.82 2320.18 3000.55C2320.18 2993.29 2326.07 2987.4 2333.33 2987.4C2340.6 2987.4 2346.48 2993.29 2346.48 3000.55Z" fill="#4F279B" fill-opacity="0.05" stroke="black"/>
<path opacity="0.35" d="M2556.1 3000.55C2556.1 3007.82 2550.21 3013.71 2542.95 3013.71C2535.68 3013.71 2529.79 3007.82 2529.79 3000.55C2529.79 2993.29 2535.68 2987.4 2542.95 2987.4C2550.21 2987.4 2556.1 2993.29 2556.1 3000.55Z" fill="#4F279B" fill-opacity="0.05" stroke="black"/>
<path opacity="0.35" d="M2765.71 3000.55C2765.71 3007.82 2759.82 3013.71 2752.56 3013.71C2745.29 3013.71 2739.4 3007.82 2739.4 3000.55C2739.4 2993.29 2745.29 2987.4 2752.56 2987.4C2759.82 2987.4 2765.71 2993.29 2765.71 3000.55Z" fill="#4F279B" fill-opacity="0.05" stroke="black"/>
<path opacity="0.35" d="M2975.32 3000.55C2975.32 3007.82 2969.43 3013.71 2962.17 3013.71C2954.9 3013.71 2949.02 3007.82 2949.02 3000.55C2949.02 2993.29 2954.9 2987.4 2962.17 2987.4C2969.43 2987.4 2975.32 2993.29 2975.32 3000.55Z" fill="#4F279B" fill-opacity="0.05" stroke="black"/>
<path opacity="0.35" d="M3184.93 3000.55C3184.93 3007.82 3179.04 3013.71 3171.78 3013.71C3164.51 3013.71 3158.62 3007.82 3158.62 3000.55C3158.62 2993.29 3164.51 2987.4 3171.78 2987.4C3179.04 2987.4 3184.93 2993.29 3184.93 3000.55Z" fill="#4F279B" fill-opacity="0.05" stroke="black"/>
<path opacity="0.35" d="M3394.54 3000.55C3394.54 3007.82 3388.65 3013.71 3381.39 3013.71C3374.12 3013.71 3368.23 3007.82 3368.23 3000.55C3368.23 2993.29 3374.12 2987.4 3381.39 2987.4C3388.65 2987.4 3394.54 2993.29 3394.54 3000.55Z" fill="#4F279B" fill-opacity="0.05" stroke="black"/>
<path opacity="0.35" d="M3604.15 3000.55C3604.15 3007.82 3598.26 3013.71 3591 3013.71C3583.74 3013.71 3577.85 3007.82 3577.85 3000.55C3577.85 2993.29 3583.74 2987.4 3591 2987.4C3598.26 2987.4 3604.15 2993.29 3604.15 3000.55Z" fill="#4F279B" fill-opacity="0.05" stroke="black"/>
<path opacity="0.35" d="M40.7616 3210.17C40.7616 3217.43 34.8731 3223.32 27.6093 3223.32C20.3455 3223.32 14.457 3217.43 14.457 3210.17C14.457 3202.9 20.3455 3197.01 27.6093 3197.01C34.8731 3197.01 40.7616 3202.9 40.7616 3210.17Z" fill="#4F279B" fill-opacity="0.05" stroke="black"/>
<path opacity="0.35" d="M250.375 3210.17C250.375 3217.43 244.486 3223.32 237.223 3223.32C229.959 3223.32 224.07 3217.43 224.07 3210.17C224.07 3202.9 229.959 3197.01 237.223 3197.01C244.486 3197.01 250.375 3202.9 250.375 3210.17Z" fill="#4F279B" fill-opacity="0.05" stroke="black"/>
<path opacity="0.35" d="M459.986 3210.17C459.986 3217.43 454.098 3223.32 446.834 3223.32C439.57 3223.32 433.682 3217.43 433.682 3210.17C433.682 3202.9 439.57 3197.01 446.834 3197.01C454.098 3197.01 459.986 3202.9 459.986 3210.17Z" fill="#4F279B" fill-opacity="0.05" stroke="black"/>
<path d="M669.598 3210.17C669.598 3217.43 663.709 3223.32 656.445 3223.32C649.181 3223.32 643.293 3217.43 643.293 3210.17C643.293 3202.9 649.181 3197.01 656.445 3197.01C663.709 3197.01 669.598 3202.9 669.598 3210.17Z" fill="#4F279B" fill-opacity="0.05" stroke="black"/>
<path opacity="0.35" d="M879.209 3210.17C879.209 3217.43 873.32 3223.32 866.057 3223.32C858.793 3223.32 852.904 3217.43 852.904 3210.17C852.904 3202.9 858.793 3197.01 866.057 3197.01C873.32 3197.01 879.209 3202.9 879.209 3210.17Z" fill="#4F279B" fill-opacity="0.05" stroke="black"/>
<path opacity="0.35" d="M1088.82 3210.17C1088.82 3217.43 1082.93 3223.32 1075.67 3223.32C1068.4 3223.32 1062.52 3217.43 1062.52 3210.17C1062.52 3202.9 1068.4 3197.01 1075.67 3197.01C1082.93 3197.01 1088.82 3202.9 1088.82 3210.17Z" fill="#4F279B" fill-opacity="0.05" stroke="black"/>
<path opacity="0.35" d="M1298.43 3210.17C1298.43 3217.43 1292.54 3223.32 1285.28 3223.32C1278.02 3223.32 1272.13 3217.43 1272.13 3210.17C1272.13 3202.9 1278.02 3197.01 1285.28 3197.01C1292.54 3197.01 1298.43 3202.9 1298.43 3210.17Z" fill="#4F279B" fill-opacity="0.05" stroke="black"/>
<path opacity="0.35" d="M1508.04 3210.17C1508.04 3217.43 1502.15 3223.32 1494.89 3223.32C1487.62 3223.32 1481.74 3217.43 1481.74 3210.17C1481.74 3202.9 1487.62 3197.01 1494.89 3197.01C1502.15 3197.01 1508.04 3202.9 1508.04 3210.17Z" fill="#4F279B" fill-opacity="0.05" stroke="black"/>
<path d="M1717.65 3210.17C1717.65 3217.43 1711.76 3223.32 1704.5 3223.32C1697.24 3223.32 1691.35 3217.43 1691.35 3210.17C1691.35 3202.9 1697.24 3197.01 1704.5 3197.01C1711.76 3197.01 1717.65 3202.9 1717.65 3210.17Z" fill="#4F279B" fill-opacity="0.05" stroke="black"/>
<path opacity="0.35" d="M1927.26 3210.17C1927.26 3217.43 1921.38 3223.32 1914.11 3223.32C1906.85 3223.32 1900.96 3217.43 1900.96 3210.17C1900.96 3202.9 1906.85 3197.01 1914.11 3197.01C1921.38 3197.01 1927.26 3202.9 1927.26 3210.17Z" fill="#4F279B" fill-opacity="0.05" stroke="black"/>
<path opacity="0.35" d="M2136.87 3210.17C2136.87 3217.43 2130.99 3223.32 2123.72 3223.32C2116.46 3223.32 2110.57 3217.43 2110.57 3210.17C2110.57 3202.9 2116.46 3197.01 2123.72 3197.01C2130.99 3197.01 2136.87 3202.9 2136.87 3210.17Z" fill="#4F279B" fill-opacity="0.05" stroke="black"/>
<path d="M2346.48 3210.17C2346.48 3217.43 2340.6 3223.32 2333.33 3223.32C2326.07 3223.32 2320.18 3217.43 2320.18 3210.17C2320.18 3202.9 2326.07 3197.01 2333.33 3197.01C2340.6 3197.01 2346.48 3202.9 2346.48 3210.17Z" fill="#4F279B" fill-opacity="0.05" stroke="black"/>
<path opacity="0.35" d="M2556.1 3210.17C2556.1 3217.43 2550.21 3223.32 2542.95 3223.32C2535.68 3223.32 2529.79 3217.43 2529.79 3210.17C2529.79 3202.9 2535.68 3197.01 2542.95 3197.01C2550.21 3197.01 2556.1 3202.9 2556.1 3210.17Z" fill="#4F279B" fill-opacity="0.05" stroke="black"/>
<path opacity="0.35" d="M2765.71 3210.17C2765.71 3217.43 2759.82 3223.32 2752.56 3223.32C2745.29 3223.32 2739.4 3217.43 2739.4 3210.17C2739.4 3202.9 2745.29 3197.01 2752.56 3197.01C2759.82 3197.01 2765.71 3202.9 2765.71 3210.17Z" fill="#4F279B" fill-opacity="0.05" stroke="black"/>
<path d="M2975.32 3210.17C2975.32 3217.43 2969.43 3223.32 2962.17 3223.32C2954.9 3223.32 2949.02 3217.43 2949.02 3210.17C2949.02 3202.9 2954.9 3197.01 2962.17 3197.01C2969.43 3197.01 2975.32 3202.9 2975.32 3210.17Z" fill="#4F279B" fill-opacity="0.05" stroke="black"/>
<path d="M3184.93 3210.17C3184.93 3217.43 3179.04 3223.32 3171.78 3223.32C3164.51 3223.32 3158.62 3217.43 3158.62 3210.17C3158.62 3202.9 3164.51 3197.01 3171.78 3197.01C3179.04 3197.01 3184.93 3202.9 3184.93 3210.17Z" fill="#4F279B" fill-opacity="0.05" stroke="black"/>
<path d="M3394.54 3210.17C3394.54 3217.43 3388.65 3223.32 3381.39 3223.32C3374.12 3223.32 3368.23 3217.43 3368.23 3210.17C3368.23 3202.9 3374.12 3197.01 3381.39 3197.01C3388.65 3197.01 3394.54 3202.9 3394.54 3210.17Z" fill="#4F279B" fill-opacity="0.05" stroke="black"/>
<path opacity="0.35" d="M3604.15 3210.17C3604.15 3217.43 3598.26 3223.32 3591 3223.32C3583.74 3223.32 3577.85 3217.43 3577.85 3210.17C3577.85 3202.9 3583.74 3197.01 3591 3197.01C3598.26 3197.01 3604.15 3202.9 3604.15 3210.17Z" fill="#4F279B" fill-opacity="0.05" stroke="black"/>
<path opacity="0.35" d="M40.7616 3419.78C40.7616 3427.04 34.8731 3432.93 27.6093 3432.93C20.3455 3432.93 14.457 3427.04 14.457 3419.78C14.457 3412.51 20.3455 3406.62 27.6093 3406.62C34.8731 3406.62 40.7616 3412.51 40.7616 3419.78Z" fill="#4F279B" fill-opacity="0.05" stroke="black"/>
<path opacity="0.35" d="M250.375 3419.78C250.375 3427.04 244.486 3432.93 237.223 3432.93C229.959 3432.93 224.07 3427.04 224.07 3419.78C224.07 3412.51 229.959 3406.62 237.223 3406.62C244.486 3406.62 250.375 3412.51 250.375 3419.78Z" fill="#4F279B" fill-opacity="0.05" stroke="black"/>
<path opacity="0.35" d="M459.986 3419.78C459.986 3427.04 454.098 3432.93 446.834 3432.93C439.57 3432.93 433.682 3427.04 433.682 3419.78C433.682 3412.51 439.57 3406.62 446.834 3406.62C454.098 3406.62 459.986 3412.51 459.986 3419.78Z" fill="#4F279B" fill-opacity="0.05" stroke="black"/>
<path opacity="0.35" d="M669.598 3419.78C669.598 3427.04 663.709 3432.93 656.445 3432.93C649.181 3432.93 643.293 3427.04 643.293 3419.78C643.293 3412.51 649.181 3406.62 656.445 3406.62C663.709 3406.62 669.598 3412.51 669.598 3419.78Z" fill="#4F279B" fill-opacity="0.05" stroke="black"/>
<path opacity="0.35" d="M879.209 3419.78C879.209 3427.04 873.32 3432.93 866.057 3432.93C858.793 3432.93 852.904 3427.04 852.904 3419.78C852.904 3412.51 858.793 3406.62 866.057 3406.62C873.32 3406.62 879.209 3412.51 879.209 3419.78Z" fill="#4F279B" fill-opacity="0.05" stroke="black"/>
<path opacity="0.35" d="M1088.82 3419.78C1088.82 3427.04 1082.93 3432.93 1075.67 3432.93C1068.4 3432.93 1062.52 3427.04 1062.52 3419.78C1062.52 3412.51 1068.4 3406.62 1075.67 3406.62C1082.93 3406.62 1088.82 3412.51 1088.82 3419.78Z" fill="#4F279B" fill-opacity="0.05" stroke="black"/>
<path d="M1298.43 3419.78C1298.43 3427.04 1292.54 3432.93 1285.28 3432.93C1278.02 3432.93 1272.13 3427.04 1272.13 3419.78C1272.13 3412.51 1278.02 3406.62 1285.28 3406.62C1292.54 3406.62 1298.43 3412.51 1298.43 3419.78Z" fill="#4F279B" fill-opacity="0.05" stroke="black"/>
<path opacity="0.35" d="M1508.04 3419.78C1508.04 3427.04 1502.15 3432.93 1494.89 3432.93C1487.62 3432.93 1481.74 3427.04 1481.74 3419.78C1481.74 3412.51 1487.62 3406.62 1494.89 3406.62C1502.15 3406.62 1508.04 3412.51 1508.04 3419.78Z" fill="#4F279B" fill-opacity="0.05" stroke="black"/>
<path d="M1717.65 3419.78C1717.65 3427.04 1711.76 3432.93 1704.5 3432.93C1697.24 3432.93 1691.35 3427.04 1691.35 3419.78C1691.35 3412.51 1697.24 3406.62 1704.5 3406.62C1711.76 3406.62 1717.65 3412.51 1717.65 3419.78Z" fill="#4F279B" fill-opacity="0.05" stroke="black"/>
<path d="M1927.26 3419.78C1927.26 3427.04 1921.38 3432.93 1914.11 3432.93C1906.85 3432.93 1900.96 3427.04 1900.96 3419.78C1900.96 3412.51 1906.85 3406.62 1914.11 3406.62C1921.38 3406.62 1927.26 3412.51 1927.26 3419.78Z" fill="#4F279B" fill-opacity="0.05" stroke="black"/>
<path opacity="0.35" d="M2136.87 3419.78C2136.87 3427.04 2130.99 3432.93 2123.72 3432.93C2116.46 3432.93 2110.57 3427.04 2110.57 3419.78C2110.57 3412.51 2116.46 3406.62 2123.72 3406.62C2130.99 3406.62 2136.87 3412.51 2136.87 3419.78Z" fill="#4F279B" fill-opacity="0.05" stroke="black"/>
<path opacity="0.35" d="M2346.48 3419.78C2346.48 3427.04 2340.6 3432.93 2333.33 3432.93C2326.07 3432.93 2320.18 3427.04 2320.18 3419.78C2320.18 3412.51 2326.07 3406.62 2333.33 3406.62C2340.6 3406.62 2346.48 3412.51 2346.48 3419.78Z" fill="#4F279B" fill-opacity="0.05" stroke="black"/>
<path opacity="0.35" d="M2556.1 3419.78C2556.1 3427.04 2550.21 3432.93 2542.95 3432.93C2535.68 3432.93 2529.79 3427.04 2529.79 3419.78C2529.79 3412.51 2535.68 3406.62 2542.95 3406.62C2550.21 3406.62 2556.1 3412.51 2556.1 3419.78Z" fill="#4F279B" fill-opacity="0.05" stroke="black"/>
<path opacity="0.35" d="M2765.71 3419.78C2765.71 3427.04 2759.82 3432.93 2752.56 3432.93C2745.29 3432.93 2739.4 3427.04 2739.4 3419.78C2739.4 3412.51 2745.29 3406.62 2752.56 3406.62C2759.82 3406.62 2765.71 3412.51 2765.71 3419.78Z" fill="#4F279B" fill-opacity="0.05" stroke="black"/>
<path opacity="0.35" d="M2975.32 3419.78C2975.32 3427.04 2969.43 3432.93 2962.17 3432.93C2954.9 3432.93 2949.02 3427.04 2949.02 3419.78C2949.02 3412.51 2954.9 3406.62 2962.17 3406.62C2969.43 3406.62 2975.32 3412.51 2975.32 3419.78Z" fill="#4F279B" fill-opacity="0.05" stroke="black"/>
<path opacity="0.35" d="M3184.93 3419.78C3184.93 3427.04 3179.04 3432.93 3171.78 3432.93C3164.51 3432.93 3158.62 3427.04 3158.62 3419.78C3158.62 3412.51 3164.51 3406.62 3171.78 3406.62C3179.04 3406.62 3184.93 3412.51 3184.93 3419.78Z" fill="#4F279B" fill-opacity="0.05" stroke="black"/>
<path opacity="0.35" d="M3394.54 3419.78C3394.54 3427.04 3388.65 3432.93 3381.39 3432.93C3374.12 3432.93 3368.23 3427.04 3368.23 3419.78C3368.23 3412.51 3374.12 3406.62 3381.39 3406.62C3388.65 3406.62 3394.54 3412.51 3394.54 3419.78Z" fill="#4F279B" fill-opacity="0.05" stroke="black"/>
<path opacity="0.35" d="M3604.15 3419.78C3604.15 3427.04 3598.26 3432.93 3591 3432.93C3583.74 3432.93 3577.85 3427.04 3577.85 3419.78C3577.85 3412.51 3583.74 3406.62 3591 3406.62C3598.26 3406.62 3604.15 3412.51 3604.15 3419.78Z" fill="#4F279B" fill-opacity="0.05" stroke="black"/>
<path opacity="0.35" d="M40.7616 3629.39C40.7616 3636.65 34.8731 3642.54 27.6093 3642.54C20.3455 3642.54 14.457 3636.65 14.457 3629.39C14.457 3622.12 20.3455 3616.24 27.6093 3616.24C34.8731 3616.24 40.7616 3622.12 40.7616 3629.39Z" fill="#4F279B" fill-opacity="0.05" stroke="black"/>
<path opacity="0.35" d="M250.375 3629.39C250.375 3636.65 244.486 3642.54 237.223 3642.54C229.959 3642.54 224.07 3636.65 224.07 3629.39C224.07 3622.12 229.959 3616.24 237.223 3616.24C244.486 3616.24 250.375 3622.12 250.375 3629.39Z" fill="#4F279B" fill-opacity="0.05" stroke="black"/>
<path d="M459.986 3629.39C459.986 3636.65 454.098 3642.54 446.834 3642.54C439.57 3642.54 433.682 3636.65 433.682 3629.39C433.682 3622.12 439.57 3616.24 446.834 3616.24C454.098 3616.24 459.986 3622.12 459.986 3629.39Z" fill="#4F279B" fill-opacity="0.05" stroke="black"/>
<path d="M669.598 3629.39C669.598 3636.65 663.709 3642.54 656.445 3642.54C649.181 3642.54 643.293 3636.65 643.293 3629.39C643.293 3622.12 649.181 3616.24 656.445 3616.24C663.709 3616.24 669.598 3622.12 669.598 3629.39Z" fill="#4F279B" fill-opacity="0.05" stroke="black"/>
<path d="M879.209 3629.39C879.209 3636.65 873.32 3642.54 866.057 3642.54C858.793 3642.54 852.904 3636.65 852.904 3629.39C852.904 3622.12 858.793 3616.24 866.057 3616.24C873.32 3616.24 879.209 3622.12 879.209 3629.39Z" fill="#4F279B" fill-opacity="0.05" stroke="black"/>
<path opacity="0.35" d="M1088.82 3629.39C1088.82 3636.65 1082.93 3642.54 1075.67 3642.54C1068.4 3642.54 1062.52 3636.65 1062.52 3629.39C1062.52 3622.12 1068.4 3616.24 1075.67 3616.24C1082.93 3616.24 1088.82 3622.12 1088.82 3629.39Z" fill="#4F279B" fill-opacity="0.05" stroke="black"/>
<path opacity="0.35" d="M1298.43 3629.39C1298.43 3636.65 1292.54 3642.54 1285.28 3642.54C1278.02 3642.54 1272.13 3636.65 1272.13 3629.39C1272.13 3622.12 1278.02 3616.24 1285.28 3616.24C1292.54 3616.24 1298.43 3622.12 1298.43 3629.39Z" fill="#4F279B" fill-opacity="0.05" stroke="black"/>
<path opacity="0.35" d="M1508.04 3629.39C1508.04 3636.65 1502.15 3642.54 1494.89 3642.54C1487.62 3642.54 1481.74 3636.65 1481.74 3629.39C1481.74 3622.12 1487.62 3616.24 1494.89 3616.24C1502.15 3616.24 1508.04 3622.12 1508.04 3629.39Z" fill="#4F279B" fill-opacity="0.05" stroke="black"/>
<path opacity="0.35" d="M1717.65 3629.39C1717.65 3636.65 1711.76 3642.54 1704.5 3642.54C1697.24 3642.54 1691.35 3636.65 1691.35 3629.39C1691.35 3622.12 1697.24 3616.24 1704.5 3616.24C1711.76 3616.24 1717.65 3622.12 1717.65 3629.39Z" fill="#4F279B" fill-opacity="0.05" stroke="black"/>
<path opacity="0.35" d="M1927.26 3629.39C1927.26 3636.65 1921.38 3642.54 1914.11 3642.54C1906.85 3642.54 1900.96 3636.65 1900.96 3629.39C1900.96 3622.12 1906.85 3616.24 1914.11 3616.24C1921.38 3616.24 1927.26 3622.12 1927.26 3629.39Z" fill="#4F279B" fill-opacity="0.05" stroke="black"/>
<path d="M2136.87 3629.39C2136.87 3636.65 2130.99 3642.54 2123.72 3642.54C2116.46 3642.54 2110.57 3636.65 2110.57 3629.39C2110.57 3622.12 2116.46 3616.24 2123.72 3616.24C2130.99 3616.24 2136.87 3622.12 2136.87 3629.39Z" fill="#4F279B" fill-opacity="0.05" stroke="black"/>
<path opacity="0.35" d="M2346.48 3629.39C2346.48 3636.65 2340.6 3642.54 2333.33 3642.54C2326.07 3642.54 2320.18 3636.65 2320.18 3629.39C2320.18 3622.12 2326.07 3616.24 2333.33 3616.24C2340.6 3616.24 2346.48 3622.12 2346.48 3629.39Z" fill="#4F279B" fill-opacity="0.05" stroke="black"/>
<path opacity="0.35" d="M2556.1 3629.39C2556.1 3636.65 2550.21 3642.54 2542.95 3642.54C2535.68 3642.54 2529.79 3636.65 2529.79 3629.39C2529.79 3622.12 2535.68 3616.24 2542.95 3616.24C2550.21 3616.24 2556.1 3622.12 2556.1 3629.39Z" fill="#4F279B" fill-opacity="0.05" stroke="black"/>
<path opacity="0.35" d="M2765.71 3629.39C2765.71 3636.65 2759.82 3642.54 2752.56 3642.54C2745.29 3642.54 2739.4 3636.65 2739.4 3629.39C2739.4 3622.12 2745.29 3616.24 2752.56 3616.24C2759.82 3616.24 2765.71 3622.12 2765.71 3629.39Z" fill="#4F279B" fill-opacity="0.05" stroke="black"/>
<path opacity="0.35" d="M2975.32 3629.39C2975.32 3636.65 2969.43 3642.54 2962.17 3642.54C2954.9 3642.54 2949.02 3636.65 2949.02 3629.39C2949.02 3622.12 2954.9 3616.24 2962.17 3616.24C2969.43 3616.24 2975.32 3622.12 2975.32 3629.39Z" fill="#4F279B" fill-opacity="0.05" stroke="black"/>
<path d="M3184.93 3629.39C3184.93 3636.65 3179.04 3642.54 3171.78 3642.54C3164.51 3642.54 3158.62 3636.65 3158.62 3629.39C3158.62 3622.12 3164.51 3616.24 3171.78 3616.24C3179.04 3616.24 3184.93 3622.12 3184.93 3629.39Z" fill="#4F279B" fill-opacity="0.05" stroke="black"/>
<path d="M3394.54 3629.39C3394.54 3636.65 3388.65 3642.54 3381.39 3642.54C3374.12 3642.54 3368.23 3636.65 3368.23 3629.39C3368.23 3622.12 3374.12 3616.24 3381.39 3616.24C3388.65 3616.24 3394.54 3622.12 3394.54 3629.39Z" fill="#4F279B" fill-opacity="0.05" stroke="black"/>
<path opacity="0.35" d="M3604.15 3629.39C3604.15 3636.65 3598.26 3642.54 3591 3642.54C3583.74 3642.54 3577.85 3636.65 3577.85 3629.39C3577.85 3622.12 3583.74 3616.24 3591 3616.24C3598.26 3616.24 3604.15 3622.12 3604.15 3629.39Z" fill="#4F279B" fill-opacity="0.05" stroke="black"/>
</g>
</g>
<defs>
<clipPath id="clip0_128_497">
<rect width="4380" height="3680" fill="white"/>
</clipPath>
</defs>
</svg>
