<svg width="6323" height="3668" viewBox="0 0 6323 3668" fill="none" xmlns="http://www.w3.org/2000/svg">
<path d="M31.1362 3626.74C58.7377 3656.83 98.9477 3671.77 139.5 3667H2283L2283 113H1305C1270.1 109.385 1247.8 107.731 1216.67 100.672C1137.61 82.7441 1046.24 60.9304 987.602 44.5759C929.987 28.5075 885.375 16.2894 826.852 8.51387C782.786 2.65902 738.56 -0.000279423 694.232 0.500084C691.101 0.525003 687.976 0.584807 684.847 0.627667C678.557 0.526996 672.3 0.471179 666.101 0.500084C653.915 0.555901 637.323 1.41908 618.534 2.77365C592.875 4.10928 567.237 6.01903 541.519 8.51387C523.698 10.2432 502.652 12.9783 480.129 16.2436C458.101 18.8291 436.481 21.625 416.937 24.5415C372.47 31.1768 327.295 39.4318 291.727 48.4513C256.587 56.2757 221.477 66.1912 183.849 80.638C125.862 102.902 74.9997 131.99 39.1737 184.817C34.6361 191.508 30.4204 198.5 26.5366 205.726C12.8688 230.131 7.55548 252.44 2.99988 280.5C2.59405 283 0.999994 296.694 0.999994 298.5C0.999994 327 0.86064 336.549 0.999756 371.5C1.13887 406.451 0.999577 2475 0.999577 3526C3.01325 3560.93 6.24085 3599.6 31.1362 3626.74Z" fill="white"/>
<path d="M1278 113H5623C5952.98 113 6117.97 113 6220.49 215.513C6323 318.025 6323 483.017 6323 813V2967C6323 3296.98 6323 3461.97 6220.49 3564.49C6117.97 3667 5952.98 3667 5623 3667H1278V113Z" fill="white"/>
</svg>
