<svg width="565" height="564" viewBox="0 0 565 564" fill="none" xmlns="http://www.w3.org/2000/svg">
<g clip-path="url(#clip0_32_1473)">
<path d="M564.499 43.175V520.567C564.499 540.153 551.456 556.682 533.588 561.967L513.295 549.824L288.095 309.711L281.035 287.644L276.911 266.459L347.136 4.01022L357.999 0.00236939H521.324C545.169 0.00236939 564.499 19.3304 564.499 43.175Z" fill="#EA6618"/>
<path d="M0.755615 520.569V43.1773C0.755615 28.412 8.17017 15.3865 19.4737 7.60197L33.3184 14.2304L271.69 269.443L281.035 287.644L281.386 305.239L216.511 552.06L206.683 563.744H43.9305C20.0859 563.744 0.755615 544.414 0.755615 520.569Z" fill="#D65813"/>
<path d="M281.036 287.642L533.588 561.969C529.607 563.148 525.475 563.747 521.323 563.746H206.688L281.038 287.644L281.036 287.642Z" fill="#E05E11"/>
<path d="M43.9304 0.000871889H358.002L281.035 287.645L19.4714 7.60041C26.6623 2.63958 35.1944 -0.0114246 43.9304 0.000871889Z" fill="#DE5C16"/>
<path d="M209.777 350.072H241.102C253.584 302.978 267.79 261.652 283.638 224.364C301.59 266.314 314.748 307.67 325.886 350.074H355.487C342.23 297.386 320.544 244.284 295.739 189.473H269.556C245.729 241.413 225.447 294.814 209.777 350.072ZM106.453 431.672H176.107V132.982H106.145V156.008H149.025V409.261H106.453V431.672ZM459.165 409.261H416.594V156.008H459.469V132.982H389.51V431.672H459.163V409.261H459.165Z" fill="white"/>
</g>
<defs>
<clipPath id="clip0_32_1473">
<rect width="563.744" height="563.744" fill="white" transform="matrix(1 0 0 -1 0.755615 563.744)"/>
</clipPath>
</defs>
</svg>
