<svg width="565" height="564" viewBox="0 0 565 564" fill="none" xmlns="http://www.w3.org/2000/svg">
<g clip-path="url(#clip0_32_1463)">
<path d="M282.503 9.54181C438.176 9.54181 564.375 133.604 564.375 286.643C564.375 439.682 438.176 563.744 282.503 563.744C126.829 563.744 0.630859 439.682 0.630859 286.643C0.630859 133.604 126.829 9.54181 282.503 9.54181Z" fill="#13AA52"/>
<path d="M357.849 316.313C340.045 394.89 297.968 420.727 293.437 430.598C288.482 437.562 283.461 449.949 283.461 449.949C283.379 450.158 283.246 450.527 283.092 450.885C282.58 443.921 282.316 441.234 275.732 434.209C265.536 426.237 213.224 382.344 208.969 293.07C204.999 209.807 269.114 160.193 277.785 153.868L278.771 153.169V153.229C278.826 152.811 281.523 133.41 283.417 112.853H290.211C291.805 127.384 294.194 141.817 297.368 156.086L297.918 156.444C301.797 159.225 305.495 162.25 308.989 165.5L309.386 165.858C327.817 182.886 360.954 222.271 360.629 285.065C360.56 295.539 359.631 305.991 357.849 316.313ZM282.696 200.878C282.696 200.878 282.696 317.656 286.55 317.634C289.555 317.634 293.448 167.003 293.448 167.003C288.097 167.648 282.696 191.794 282.696 200.878Z" fill="white"/>
</g>
<defs>
<clipPath id="clip0_32_1463">
<rect width="563.744" height="563.744" fill="white" transform="matrix(1 0 0 -1 0.630859 563.744)"/>
</clipPath>
</defs>
</svg>
