<svg width="535" height="564" viewBox="0 0 535 564" fill="none" xmlns="http://www.w3.org/2000/svg">
<g clip-path="url(#clip0_32_1479)">
<path d="M269.115 462.559C258.268 375.829 366.812 397.511 366.812 336.078C366.812 299.94 324.277 290.075 269.115 285.485C225.698 281.871 167.815 281.871 167.815 224.052C167.815 166.232 283.595 184.3 269.115 101.184M197.715 402.187C197.715 291.686 365.234 270.004 365.234 166.427" stroke="black" stroke-width="96.1538"/>
<path d="M265.504 455.332C295.478 455.332 319.776 479.601 319.776 509.538C319.776 539.475 295.478 563.744 265.504 563.744C235.531 563.744 211.232 539.475 211.232 509.538C211.232 479.601 235.531 455.332 265.504 455.332Z" fill="black"/>
<path d="M265.504 -0.000160217C295.478 -0.000160217 319.776 24.2688 319.776 54.206C319.776 84.1432 295.478 108.412 265.504 108.412C235.531 108.412 211.232 84.1432 211.232 54.206C211.232 24.2688 235.531 -0.000160217 265.504 -0.000160217Z" fill="black"/>
</g>
<defs>
<clipPath id="clip0_32_1479">
<rect width="534.626" height="563.744" fill="white" transform="matrix(1 0 0 -1 0 563.744)"/>
</clipPath>
</defs>
</svg>
