<svg width="931" height="564" viewBox="0 0 931 564" fill="none" xmlns="http://www.w3.org/2000/svg">
<path d="M497.483 355.412C497.479 361.831 499.166 368.137 502.375 373.695C505.584 379.254 510.201 383.868 515.76 387.073C521.32 390.279 527.626 391.962 534.044 391.953C540.461 391.945 546.763 390.245 552.314 387.024C585.401 399.173 622.25 405.529 660.565 405.529C763.166 405.529 851.168 359.697 880.915 293.739C880.662 278.123 858.481 270.851 849.632 280.435C825.239 333.412 748.187 371.55 660.565 371.55C628.718 371.55 598.154 366.687 570.478 357.4C570.749 352.523 570.04 347.641 568.391 343.043C566.743 338.445 564.19 334.225 560.883 330.631C557.575 327.037 553.581 324.144 549.135 322.121C544.69 320.098 539.885 318.987 535.003 318.854C530.121 318.721 525.262 319.569 520.713 321.347C516.165 323.125 512.019 325.797 508.521 329.206C505.023 332.614 502.243 336.689 500.348 341.191C498.452 345.692 497.478 350.528 497.483 355.412ZM907.731 219.494C907.735 225.322 906.345 231.066 903.676 236.247C901.007 241.428 897.138 245.895 892.391 249.275C887.644 252.656 882.158 254.851 876.389 255.678C870.621 256.505 864.739 255.94 859.234 254.029C853.728 252.119 848.76 248.919 844.744 244.697C840.727 240.474 837.779 235.352 836.145 229.758C834.512 224.164 834.24 218.26 835.353 212.539C836.466 206.818 838.932 201.447 842.544 196.874C830.876 178.932 812.74 162.683 789.503 149.632C753.612 129.506 707.828 118.415 660.551 118.415C619.615 118.415 580.314 126.518 546.86 141.88C524.257 152.267 505.459 165.374 491.41 180.469C482.095 185.895 460.564 168.588 468.37 155.396C510.56 111.509 582.117 84.4208 660.551 84.4208C713.55 84.4208 765.252 97.0487 806.131 119.993C836.09 136.807 859.341 158.581 873.968 183.076C883.147 183.779 891.723 187.919 897.982 194.671C904.241 201.422 907.723 210.287 907.731 219.494Z" fill="#89D96D"/>
<path d="M204.041 150.943C170.728 194.139 151.86 255.094 151.86 320.911C151.86 380.809 167.656 437.339 196.333 480.098C226.39 524.958 267.058 549.65 310.827 549.65C350.72 549.65 388.753 528.623 417.937 490.457C445.486 454.406 463.41 405.233 468.385 351.974C456.56 358.509 444.37 364.358 431.873 369.492C417.739 454.152 367.912 515.671 310.827 515.671C278.74 515.671 248.091 496.32 224.53 461.171C199.574 423.95 185.82 374.129 185.82 320.897C185.82 262.381 203.111 206.824 232.463 169.758C240.583 170.566 248.74 168.632 255.632 164.264C262.525 159.896 267.757 153.345 270.493 145.657C273.229 137.968 273.313 129.585 270.73 121.843C268.147 114.102 263.047 107.449 256.242 102.944C249.438 98.4399 241.321 96.3441 233.187 96.9911C225.053 97.6381 217.369 100.991 211.362 106.514C205.355 112.037 201.37 119.414 200.043 127.466C198.716 135.518 200.124 143.783 204.041 150.943ZM463.932 331.073C404.296 365.518 337.756 379.188 282.686 369.577C276.87 375.29 269.311 378.894 261.211 379.814C253.111 380.734 244.936 378.917 237.987 374.653C231.039 370.389 225.717 363.922 222.868 356.283C220.018 348.644 219.807 340.271 222.265 332.498C224.724 324.724 229.713 317.997 236.436 313.387C243.16 308.776 251.233 306.548 259.369 307.057C267.505 307.566 275.237 310.782 281.334 316.194C287.432 321.606 291.543 328.902 293.015 336.922C339.362 343.771 395.63 331.284 446.937 301.645C509.602 265.467 553.92 209.304 562.587 157.228C573.395 152.718 585.19 148.857 597.957 145.855C594.631 213.504 542.732 285.593 463.932 331.073ZM472.936 49.4828C440.046 45.297 402.732 50.5257 366.037 64.2528C355.497 56.1067 344.336 48.468 332.612 41.4071C371.59 23.5083 412.427 14.1078 450.305 14.1078C459.479 14.1078 468.497 14.6575 477.248 15.7709C522.609 21.5352 558.557 41.9991 579.229 73.6251C567.529 76.46 556.002 79.9657 544.705 84.1249C528.795 65.5636 503.867 53.4149 472.936 49.4828ZM436.566 182.977C444.726 183.065 452.621 185.883 458.993 190.982C465.364 196.081 469.845 203.167 471.721 211.11C473.596 219.053 472.758 227.395 469.34 234.806C465.923 242.217 460.122 248.27 452.863 252C445.605 255.729 437.307 256.92 429.293 255.382C421.278 253.845 414.01 249.668 408.646 243.517C403.283 237.366 400.133 229.596 399.699 221.446C399.266 213.296 401.574 205.236 406.255 198.551C399.308 181.836 389.119 165.107 376.127 149.167C356.032 124.531 329.611 102.376 299.723 85.1114C257.997 60.9973 213.059 48.0593 171.729 48.0734C167.417 48.0734 163.133 48.2144 158.905 48.4963C116.687 51.3291 84.6146 68.1991 68.5643 95.9776C40.1276 145.249 68.4798 219.353 134.597 273.853C132.972 285.979 131.984 298.182 131.638 310.412L129.764 313.019C86.7002 282.055 53.585 242.086 36.4919 200.51C18.3843 156.453 19.3284 113.299 39.1411 78.9948C61.0254 41.0971 102.75 18.2091 156.623 14.587C161.569 14.2629 166.571 14.0938 171.616 14.0938C218.893 14.0938 269.834 28.6102 316.703 55.684C372.576 87.9301 415.471 133.988 436.566 182.977Z" fill="#999999"/>
</svg>
