<svg width="593" height="564" viewBox="0 0 593 564" fill="none" xmlns="http://www.w3.org/2000/svg">
<g clip-path="url(#clip0_32_1468)">
<path d="M409.819 170.03C431.727 172.299 448.347 191.189 447.591 213.861C446.837 236.531 427.949 254.668 405.285 254.668H403.775C380.353 253.912 362.223 234.265 362.979 210.839C363.735 199.503 368.267 189.679 375.066 182.878C349.38 132.246 310.096 95.2179 251.17 64.2349C211.13 43.0755 169.58 35.5182 128.03 40.8069C94.0329 45.3417 67.5914 60.454 50.9686 85.3944C26.7951 122.422 24.5294 162.475 44.9275 202.525C59.2823 231.242 81.9438 252.402 96.2985 262.981C93.2769 272.805 88.7432 289.43 86.4775 301.519C-23.0662 222.172 -11.7331 114.865 21.5077 64.2349C46.4372 26.4485 97.0545 3.02275 152.959 3.02275C168.068 3.02275 183.176 4.53513 198.287 8.31145C294.988 27.2047 368.269 84.6382 409.819 170.03ZM542.782 263.735C485.366 330.992 400.754 368.02 304.053 368.02H291.966C285.167 381.622 270.812 390.692 254.948 390.692H253.436C230.018 389.936 211.888 370.289 212.642 346.861C213.398 324.191 232.284 306.054 254.948 306.054H256.457C273.078 306.81 287.432 317.39 293.476 331.748H307.075C364.491 331.748 418.884 315.124 467.992 282.628C505.764 257.69 532.961 225.195 548.07 185.901C560.912 154.161 560.157 123.178 546.558 96.728C525.406 56.6776 489.899 34.762 443.06 34.762C412.841 34.762 384.133 43.8316 369.023 50.6327C360.714 43.0755 345.603 30.9856 335.026 23.426C367.513 8.31379 400.754 0.000312644 432.483 0.000312644C505.008 0.000312644 558.647 40.053 579.045 80.1033C600.953 123.935 599.441 199.503 542.782 263.735ZM159.003 157.186C159.759 134.514 178.645 116.38 201.309 116.38H202.821C226.24 117.134 244.37 136.783 243.614 160.209C242.861 182.881 223.972 201.015 201.309 201.015H199.799C198.287 201.015 196.019 201.015 194.511 200.261C163.536 251.648 150.694 307.567 155.227 368.023C158.247 413.364 173.357 452.66 199.799 485.156C221.707 513.116 264.013 526.719 292.722 527.472C372.8 528.985 406.795 429.235 409.063 389.182C418.884 386.916 435.504 381.625 446.837 377.846C437.77 500.266 362.223 563.744 289.7 563.744C221.707 563.744 159.003 514.624 134.071 442.078C99.3202 345.351 121.984 252.402 164.29 179.1C160.515 173.811 158.247 165.5 159.003 157.186Z" fill="#764ABC"/>
</g>
<defs>
<clipPath id="clip0_32_1468">
<rect width="591.244" height="563.744" fill="white" transform="matrix(1 0 0 -1 0.894531 563.744)"/>
</clipPath>
</defs>
</svg>
